<?xml version="1.0" encoding="UTF-8"?>
<svg version="1.1" viewBox="0 0 1080 1080" xml:space="preserve" xmlns="http://www.w3.org/2000/svg">
    <path d="m 665.01471,244.56543 v 77.32707 a 251.47444,251.47444 0 0 1 8.77775,5.17798 251.47444,251.47444 0 0 1 11.72849,7.83673 251.47444,251.47444 0 0 1 11.27063,8.48217 251.47444,251.47444 0 0 1 10.77763,9.10073 251.47444,251.47444 0 0 1 10.25002,9.69037 251.47444,251.47444 0 0 1 9.69089,10.25053 251.47444,251.47444 0 0 1 9.10073,10.77712 251.47444,251.47444 0 0 1 8.48165,11.27063 251.47444,251.47444 0 0 1 7.83725,11.729 251.47444,251.47444 0 0 1 7.16649,12.14913 251.47444,251.47444 0 0 1 6.47454,12.53257 251.47444,251.47444 0 0 1 5.76141,12.87518 251.47444,251.47444 0 0 1 5.03018,13.17853 251.47444,251.47444 0 0 1 4.28398,13.44 251.47444,251.47444 0 0 1 3.5233,13.6586 251.47444,251.47444 0 0 1 2.75177,13.83482 251.47444,251.47444 0 0 1 1.97197,13.9671 251.47444,251.47444 0 0 1 1.18546,14.05599 251.47444,251.47444 0 0 1 0.39584,14.10043 251.47444,251.47444 0 0 1 -3.09646,39.3392 251.47444,251.47444 0 0 1 -9.21184,38.37079 251.47444,251.47444 0 0 1 -15.10088,36.45669 251.47444,251.47444 0 0 1 -20.61838,33.64601 251.47444,251.47444 0 0 1 -25.6279,30.00643 251.47444,251.47444 0 0 1 -30.00643,25.6279 251.47444,251.47444 0 0 1 -33.64601,20.61838 251.47444,251.47444 0 0 1 -36.45669,15.10088 251.47444,251.47444 0 0 1 -38.37079,9.21184 251.47444,251.47444 0 0 1 -39.3392,3.09646 251.47444,251.47444 0 0 1 -39.3392,-3.09646 251.47444,251.47444 0 0 1 -38.37078,-9.21184 251.47444,251.47444 0 0 1 -36.45721,-15.10088 251.47444,251.47444 0 0 1 -33.64601,-20.61838 251.47444,251.47444 0 0 1 -30.00643,-25.6279 251.47444,251.47444 0 0 1 -25.62738,-30.00643 251.47444,251.47444 0 0 1 -20.61838,-33.64601 251.47444,251.47444 0 0 1 -15.10089,-36.45669 251.47444,251.47444 0 0 1 -9.21235,-38.37079 251.47444,251.47444 0 0 1 -3.09594,-39.3392 251.47444,251.47444 0 0 1 3.09594,-39.3392 251.47444,251.47444 0 0 1 9.21235,-38.37078 251.47444,251.47444 0 0 1 15.10089,-36.45721 251.47444,251.47444 0 0 1 20.61838,-33.64601 251.47444,251.47444 0 0 1 25.62738,-30.00643 251.47444,251.47444 0 0 1 30.00643,-25.62738 251.47444,251.47444 0 0 1 22.79861,-13.97124 v -77.51878 a 320.84668,320.84668 0 0 0 -8.27029,3.08456 320.84668,320.84668 0 0 0 -40.17791,21.93872 320.84668,320.84668 0 0 0 -36.64738,27.43398 320.84668,320.84668 0 0 0 -32.3696,32.3696 320.84668,320.84668 0 0 0 -27.43398,36.64738 320.84668,320.84668 0 0 0 -21.93872,40.17791 320.84668,320.84668 0 0 0 -15.99799,42.89195 320.84668,320.84668 0 0 0 -9.73067,44.73164 320.84668,320.84668 0 0 0 -3.26543,45.66129 320.84668,320.84668 0 0 0 3.26543,45.6613 320.84668,320.84668 0 0 0 9.73067,44.73164 320.84668,320.84668 0 0 0 15.99799,42.89143 320.84668,320.84668 0 0 0 21.93872,40.17843 320.84668,320.84668 0 0 0 27.43398,36.64686 320.84668,320.84668 0 0 0 32.3696,32.37012 320.84668,320.84668 0 0 0 36.64738,27.43346 320.84668,320.84668 0 0 0 40.17791,21.93923 320.84668,320.84668 0 0 0 42.89195,15.99748 320.84668,320.84668 0 0 0 44.73164,9.73067 320.84668,320.84668 0 0 0 45.66129,3.26595 320.84668,320.84668 0 0 0 45.6613,-3.26595 320.84668,320.84668 0 0 0 44.73164,-9.73067 320.84668,320.84668 0 0 0 42.89143,-15.99748 320.84668,320.84668 0 0 0 40.17843,-21.93923 320.84668,320.84668 0 0 0 36.64686,-27.43346 320.84668,320.84668 0 0 0 32.37012,-32.37012 320.84668,320.84668 0 0 0 27.43346,-36.64686 320.84668,320.84668 0 0 0 21.93923,-40.17843 320.84668,320.84668 0 0 0 15.99748,-42.89143 320.84668,320.84668 0 0 0 9.73067,-44.73164 320.84668,320.84668 0 0 0 3.26595,-45.6613 320.84668,320.84668 0 0 0 -0.38654,-15.74322 320.84668,320.84668 0 0 0 -1.15859,-15.7055 320.84668,320.84668 0 0 0 -1.92753,-15.62954 320.84668,320.84668 0 0 0 -2.69234,-15.51585 320.84668,320.84668 0 0 0 -3.45043,-15.36547 320.84668,320.84668 0 0 0 -4.20026,-15.17737 320.84668,320.84668 0 0 0 -4.93975,-14.95309 320.84668,320.84668 0 0 0 -5.66736,-14.69264 320.84668,320.84668 0 0 0 -6.38204,-14.39706 320.84668,320.84668 0 0 0 -7.08019,-14.06632 320.84668,320.84668 0 0 0 -7.76231,-13.70201 320.84668,320.84668 0 0 0 -8.42533,-13.30513 320.84668,320.84668 0 0 0 -9.06766,-12.87518 320.84668,320.84668 0 0 0 -9.6883,-12.41475 320.84668,320.84668 0 0 0 -10.28619,-11.92433 320.84668,320.84668 0 0 0 -10.85877,-11.40551 320.84668,320.84668 0 0 0 -11.40551,-10.85877 320.84668,320.84668 0 0 0 -11.92485,-10.28619 320.84668,320.84668 0 0 0 -12.41475,-9.68882 320.84668,320.84668 0 0 0 -12.87518,-9.06766 320.84668,320.84668 0 0 0 -13.30461,-8.42533 320.84668,320.84668 0 0 0 -13.70201,-7.7618 320.84668,320.84668 0 0 0 -14.06633,-7.0807 320.84668,320.84668 0 0 0 -12.16514,-5.39244 z" style="paint-order:stroke fill markers"/>
    <path d="m 602.8686,378.91005 h 63.7719 l -0.1807,345.77734 -63.77186,4e-5 0.18072,-150.6679 -124.29199,0.54195 -0.36133,150.48731 -64.85584,-0.18069 0.18061,-345.05476 63.95261,0.36132 0.36131,135.31204 124.6533,0.18059 z" style="paint-order:stroke fill markers"/>
    <path d="m 509.72496,151.75973 v 221.76321 h 60.55031 V 151.75973 Z" style="paint-order:stroke fill markers"/>
</svg>
