<?xml version="1.0" encoding="UTF-8"?>
<svg version="1.1" viewBox="0 0 1080 1080" xml:space="preserve" xmlns="http://www.w3.org/2000/svg">
    <path d="m 142.23938,86.052629 -6.51485,6.898287 4.20698,30.984154 c -1.20089,0.0602 -2.3983,0.17797 -3.58789,0.35295 l -4.70721,-23.09781 -1.78852,-1.341524 -1.21336,1.980244 5.2927,22.91746 c -2.03813,0.43731 -4.03672,1.04357 -5.97432,1.81229 -1.6969,0.75134 -3.33612,1.62752 -4.90357,2.62103 l -12.71551,-19.81739 -2.57452,-1.30948 -0.99373,2.80034 13.78107,19.92437 c -0.96965,0.72038 -1.90405,1.48714 -2.79983,2.29753 l -19.968809,-24.4352 -9.258866,-0.31626 0.271301,9.48469 25.139554,19.12855 c -0.80154,0.88675 -1.56035,1.81129 -2.27377,2.77037 l -19.930046,-13.18214 -2.213302,0.31575 0.542086,2.25826 20.295922,12.68036 c -1.04177,1.63205 -1.95601,3.34251 -2.7342,5.11545 -0.68316,1.76174 -1.23256,3.57286 -1.64331,5.41724 l -23.179984,-5.05964 -2.746602,0.89452 1.277441,2.68252 24.029545,4.3801 c -0.17518,1.18978 -0.29314,2.38732 -0.35347,3.58841 l -31.596005,-3.1781 -6.770646,6.32313 6.898287,6.51484 31.510734,-4.27829 c 0.0603,1.18912 0.17702,2.37472 0.34985,3.55276 l -23.621294,4.81366 -1.341003,1.788 1.979724,1.21388 23.526213,-5.43326 c 0.41683,1.88709 0.97875,3.73957 1.68052,5.54023 0.7201,1.61038 1.55288,3.16834 2.49183,4.66173 -0.94699,0.51134 -1.92386,1.04452 -3.17345,1.6397 -0.82575,0.3933 -1.69534,0.78588 -2.57813,1.15341 -0.8828,0.36754 -1.77919,0.70988 -2.65927,1.00201 -0.88008,0.29213 -1.743997,0.53416 -2.561602,0.70125 -0.408803,0.0835 -0.806062,0.14874 -1.188041,0.19172 -0.38198,0.043 -0.748888,0.0637 -1.096574,0.0599 -0.695373,-0.008 -1.317513,-0.0522 -1.887224,-0.12505 -0.569711,-0.0729 -1.087055,-0.17375 -1.573547,-0.29301 -0.486492,-0.11926 -0.942312,-0.25736 -1.388029,-0.40411 -0.445717,-0.14675 -0.881734,-0.30252 -1.329118,-0.45785 -0.447383,-0.15533 -0.906354,-0.31027 -1.397847,-0.45527 -0.491494,-0.14501 -1.015655,-0.28006 -1.593702,-0.39584 -0.578046,-0.11579 -1.210153,-0.21192 -1.917195,-0.27957 -0.707043,-0.0677 -1.489333,-0.10686 -2.367814,-0.10749 -0.439241,-3.3e-4 -0.891686,0.0296 -1.353923,0.0858 -0.462236,0.0562 -0.934328,0.13872 -1.412833,0.24392 -0.478506,0.10519 -0.963543,0.23316 -1.451591,0.37982 -0.488049,0.14666 -0.97933,0.31241 -1.470195,0.49299 -0.981729,0.36117 -1.962431,0.78236 -2.915067,1.23403 -0.952637,0.45168 -1.877904,0.93353 -2.747636,1.41542 -0.869732,0.4819 -1.684408,0.9641 -2.417424,1.41594 -0.733016,0.45183 -1.384525,0.87356 -1.927014,1.23506 -1.084978,0.72301 -1.735295,1.2051 -1.735295,1.2051 l 0.02015,14.92725 c 0,0 0.725618,-0.46348 1.914095,-1.15858 0.594239,-0.34755 1.304496,-0.75313 2.097547,-1.18753 0.79305,-0.4344 1.669383,-0.89786 2.595707,-1.36116 0.926323,-0.46329 1.902922,-0.92639 2.896981,-1.36064 0.994058,-0.43424 2.005628,-0.83977 3.001884,-1.187 0.996255,-0.34724 1.977502,-0.63643 2.910416,-0.83871 0.466457,-0.10114 0.920757,-0.18058 1.35909,-0.23461 0.438334,-0.054 0.860955,-0.0825 1.262972,-0.0822 0.402018,3.2e-4 0.800776,0.0268 1.196827,0.0765 0.39605,0.0497 0.78923,0.12245 1.180289,0.21498 0.391059,0.0925 0.780328,0.20503 1.167371,0.33383 0.387043,0.12879 0.771999,0.27401 1.156002,0.43253 0.768005,0.31702 1.531184,0.68709 2.292883,1.08365 0.761699,0.39657 1.522452,0.81968 2.285649,1.24334 0.763196,0.42366 1.529168,0.84812 2.301668,1.24643 0.7725,0.39832 1.55185,0.77088 2.341459,1.09141 0.394804,0.16026 0.792147,0.30723 1.192692,0.43822 0.400545,0.13098 0.804551,0.24591 1.211819,0.34106 0.40726,0.0951 0.81804,0.17048 1.233,0.22324 0.41495,0.0528 0.83418,0.083 1.2578,0.0868 0.42362,0.004 0.83799,-0.0183 1.24437,-0.0625 0.40638,-0.0442 0.8046,-0.11055 1.19631,-0.19637 0.39171,-0.0858 0.77692,-0.1911 1.15652,-0.31213 0.37959,-0.12102 0.75392,-0.25791 1.12396,-0.40772 0.74009,-0.29962 1.46401,-0.65055 2.18126,-1.02681 0.71726,-0.37627 1.42811,-0.77819 2.14302,-1.17978 0.71492,-0.40159 1.43424,-0.80263 2.16731,-1.17822 0.73308,-0.37559 1.48034,-0.72543 2.25206,-1.02371 0.38586,-0.14914 0.77782,-0.28547 1.17719,-0.40566 0.39937,-0.12019 0.8062,-0.22472 1.22163,-0.30954 0.41544,-0.0848 0.83976,-0.15024 1.27383,-0.19327 0.43406,-0.043 0.87799,-0.0636 1.33325,-0.0584 0.45525,0.005 0.90061,0.0354 1.33738,0.0873 0.43678,0.0519 0.86534,0.12565 1.28571,0.21807 0.42038,0.0924 0.83313,0.20357 1.23921,0.33021 0.40607,0.12665 0.80554,0.26864 1.19941,0.42323 0.78773,0.30919 1.5533,0.66827 2.30476,1.05162 0.75147,0.38335 1.48913,0.79154 2.22106,1.19889 0.73192,0.40735 1.45834,0.81411 2.18746,1.19528 0.72913,0.38117 1.46093,0.73646 2.204,1.04128 0.37153,0.15241 0.74632,0.29208 1.12448,0.41599 0.37816,0.12392 0.75983,0.23229 1.1467,0.32143 0.38687,0.0891 0.77899,0.15912 1.17667,0.20722 0.39768,0.0481 0.80123,0.0741 1.21181,0.0749 0.41059,8e-4 0.81343,-0.0243 1.20975,-0.0723 0.39632,-0.048 0.78636,-0.11851 1.17047,-0.20878 0.38411,-0.0903 0.76242,-0.20005 1.13637,-0.32607 0.37394,-0.12603 0.74366,-0.26847 1.10949,-0.42375 0.73165,-0.31055 1.44911,-0.67296 2.16059,-1.06143 0.71148,-0.38848 1.41724,-0.8032 2.12493,-1.2175 0.7077,-0.4143 1.41756,-0.82843 2.13786,-1.21646 0.7203,-0.38804 1.45109,-0.75022 2.20038,-1.05989 0.37465,-0.15483 0.75398,-0.29672 1.13895,-0.42219 0.38497,-0.12548 0.77572,-0.23442 1.17306,-0.32402 0.39734,-0.0896 0.8016,-0.15949 1.21336,-0.2067 0.41176,-0.0472 0.83112,-0.072 1.25935,-0.0703 0.42823,0.002 0.85298,0.0293 1.27434,0.0791 0.42136,0.0498 0.83977,0.12197 1.25522,0.21343 0.41546,0.0915 0.82817,0.20192 1.23869,0.32866 0.41052,0.12674 0.8187,0.26966 1.22525,0.4253 0.8131,0.31127 1.61957,0.67399 2.42259,1.06246 0.80301,0.38848 1.60333,0.803 2.40398,1.2175 0.80066,0.4145 1.6021,0.82918 2.40813,1.21853 0.80603,0.38935 1.61689,0.75357 2.43602,1.0666 0.40957,0.15652 0.8213,0.30004 1.23559,0.42788 0.41428,0.12784 0.83111,0.24003 1.25108,0.3328 0.41998,0.0928 0.84306,0.16626 1.26969,0.21756 0.42664,0.0513 0.85714,0.0803 1.2914,0.0837 0.43425,0.003 0.86668,-0.0343 1.29811,-0.10645 0.43143,-0.0721 0.862,-0.17861 1.29243,-0.31316 0.43042,-0.13455 0.86066,-0.29725 1.29191,-0.48111 0.43125,-0.18385 0.8637,-0.3887 1.29759,-0.60875 0.86779,-0.44008 1.74256,-0.93983 2.63188,-1.4459 0.88933,-0.50608 1.79325,-1.01862 2.7187,-1.4857 0.46273,-0.23354 0.93111,-0.4558 1.4056,-0.65991 0.47449,-0.2041 0.95524,-0.39036 1.44332,-0.5519 0.48809,-0.16155 0.98375,-0.29877 1.48725,-0.40463 0.5035,-0.10586 1.01508,-0.1805 1.53582,-0.21756 0.52075,-0.037 1.05079,-0.0361 1.5906,0.009 0.53981,0.0449 1.08985,0.13396 1.65055,0.27388 0.5607,0.13993 1.13224,0.33067 1.71566,0.57878 0.58341,0.24811 1.17901,0.55353 1.78697,0.92294 0.60795,0.36941 1.21374,0.71126 1.81539,1.02733 0.60165,0.31606 1.19895,0.60658 1.79007,0.87333 0.59113,0.26676 1.1765,0.50974 1.75287,0.73122 0.57637,0.22148 1.14431,0.42128 1.7017,0.60152 1.11478,0.36048 2.18734,0.64276 3.20084,0.86248 1.0135,0.21972 1.96844,0.37711 2.84686,0.48834 0.87841,0.11123 1.6805,0.17634 2.39003,0.21135 0.70953,0.035 1.32665,0.0399 1.83348,0.031 1.01365,-0.0179 1.58802,-0.0915 1.58802,-0.0915 l -0.0656,-14.57482 c -1.2205,0.0454 -2.36673,0.0624 -3.44424,0.0543 -1.0775,-0.008 -2.08666,-0.0414 -3.03392,-0.0971 -0.94726,-0.0557 -1.83311,-0.13366 -2.66289,-0.23099 -0.82977,-0.0973 -1.60402,-0.21425 -2.32905,-0.34727 -0.72504,-0.13301 -1.40093,-0.28219 -2.03399,-0.44493 -0.63305,-0.16275 -1.22333,-0.33904 -1.77715,-0.52555 -0.55382,-0.18652 -1.07122,-0.38323 -1.55856,-0.58756 -0.48735,-0.20434 -0.94511,-0.41632 -1.37873,-0.63252 -0.86723,-0.43241 -1.63948,-0.88238 -2.36833,-1.32654 -0.72885,-0.44415 -1.41437,-0.88259 -2.10685,-1.29087 -0.69247,-0.40828 -1.39265,-0.78678 -2.15077,-1.11156 -0.37906,-0.16239 -0.77241,-0.31132 -1.18701,-0.4439 -0.4146,-0.13259 -0.8502,-0.24889 -1.3131,-0.34572 -0.55742,-0.1166 -1.24737,-0.20914 -2.02726,-0.28164 -0.7799,-0.0725 -1.64995,-0.12491 -2.56884,-0.16174 -1.83778,-0.0737 -3.87052,-0.0845 -5.76347,-0.0661 -1.89295,0.0184 -3.64699,0.0661 -4.92735,0.10904 -1.28035,0.0429 -2.08773,0.0811 -2.08773,0.0811 l -1.65933,-0.41393 c 0.0863,-0.10409 0.17214,-0.20866 0.25735,-0.31367 1.36725,-2.04635 2.53036,-4.22249 3.47214,-6.49625 0.56564,-1.50806 1.03382,-3.05122 1.40147,-4.61935 l 22.95518,5.01054 2.74661,-0.89452 -1.27744,-2.68252 -23.64352,-4.30982 c 0.17719,-1.19994 0.2962,-2.40796 0.35656,-3.61941 l 31.20689,3.13882 6.77064,-6.32312 -6.89829,-6.51485 -30.83119,4.18631 c -0.002,-0.0699 -0.004,-0.13989 -0.007,-0.20981 -0.0537,-0.818 -0.13422,-1.63415 -0.24133,-2.44688 -0.0474,-0.31119 -0.0988,-0.62182 -0.15399,-0.93173 l 22.99343,-4.68601 1.34152,-1.78853 -1.98024,-1.21336 -22.8167,5.26945 c -0.10433,-0.49245 -0.21858,-0.98285 -0.34261,-1.47071 -0.21213,-0.79198 -0.45018,-1.57695 -0.71365,-2.35335 -0.26368,-0.77625 -0.55274,-1.54381 -0.86662,-2.30115 -0.31359,-0.75737 -0.65195,-1.50442 -1.01441,-2.23966 -0.23936,-0.47164 -0.4887,-0.93827 -0.74775,-1.39939 l 19.92126,-12.7832 1.31,-2.57452 -2.80035,-0.99322 -19.95072,13.79864 c -0.0629,-0.1021 -0.12629,-0.20392 -0.19017,-0.30541 -0.45554,-0.68153 -0.93333,-1.34805 -1.43247,-1.99833 -0.16862,-0.21025 -0.33952,-0.41871 -0.51263,-0.62528 l 24.29929,-19.85771 0.31626,-9.25835 -9.48469,0.27079 -18.88257,24.81605 c -0.2536,-0.24423 -0.51065,-0.48491 -0.77101,-0.72192 -0.61634,-0.54061 -1.25028,-1.06096 -1.90066,-1.56011 -0.0284,-0.0204 -0.0568,-0.0407 -0.0853,-0.061 l 12.92273,-19.53731 -0.31626,-2.21279 -2.25826,0.54157 -12.35635,19.77812 c -0.65145,-0.4337 -1.31642,-0.84702 -1.99368,-1.2392 -0.71006,-0.41007 -1.43349,-0.79687 -2.16886,-1.15962 -0.73524,-0.36245 -1.48229,-0.70081 -2.23965,-1.01441 -0.75735,-0.3137 -1.52491,-0.60259 -2.30116,-0.86609 -0.77639,-0.26366 -1.56136,-0.50187 -2.35334,-0.71417 -0.031,-0.007 -0.062,-0.0145 -0.093,-0.0217 l 4.96456,-22.74434 -0.89452,-2.746607 -2.68253,1.277437 -4.29741,23.57686 c -0.60325,-0.11491 -1.2093,-0.21503 -1.81746,-0.30024 -0.59706,-0.0734 -1.19586,-0.13255 -1.79575,-0.17725 l 3.12022,-31.019812 z" style="paint-order:stroke fill markers"/>
    <path d="m 71.123253,208.56308 c 0,0 8.714484,-4.92585 11.315633,-4.97073 2.601149,-0.0449 5.764147,2.6391 11.229168,4.49906 5.465022,1.85997 13.608506,2.27104 13.608506,2.27104 0,0 -7.280844,2.70232 -11.870447,3.1222 -4.589603,0.41988 -10.642986,-3.64471 -13.50477,-4.47621 -2.861784,-0.8315 -10.77809,-0.44536 -10.77809,-0.44536 z" style="paint-order:stroke fill markers"/>
    <path d="m 108.503,209.26029 c 0,0 8.71449,-4.92585 11.31564,-4.97073 2.60115,-0.0449 5.76414,2.6391 11.22917,4.49906 5.46502,1.85997 13.6085,2.27104 13.6085,2.27104 0,0 -7.28084,2.70232 -11.87045,3.1222 -4.5896,0.41988 -10.64298,-3.64471 -13.50477,-4.47621 -2.86178,-0.8315 -10.77809,-0.44536 -10.77809,-0.44536 z" style="paint-order:stroke fill markers"/>
    <path d="m 146.08524,209.43385 c 0,0 8.71448,-4.92585 11.31563,-4.97073 2.60115,-0.0449 5.76415,2.6391 11.22917,4.49906 5.46502,1.85997 13.60851,2.27104 13.60851,2.27104 0,0 -7.28085,2.70232 -11.87045,3.1222 -4.58961,0.41988 -10.64299,-3.64471 -13.50477,-4.47621 -2.86179,-0.8315 -10.77809,-0.44536 -10.77809,-0.44536 z" style="paint-order:stroke fill markers"/>
    <path d="m 183.63046,209.98292 c 0,0 8.71449,-4.92585 11.31564,-4.97073 2.60115,-0.0449 5.76414,2.6391 11.22916,4.49906 5.46503,1.85997 13.60851,2.27104 13.60851,2.27104 0,0 -7.28084,2.70232 -11.87045,3.1222 -4.5896,0.41988 -10.64298,-3.64471 -13.50477,-4.47621 -2.86178,-0.8315 -10.77809,-0.44536 -10.77809,-0.44536 z" style="paint-order:stroke fill markers"/>
    <path d="m 71.510728,220.30598 c 0,0 8.71448,-4.92585 11.31563,-4.97073 2.60115,-0.0449 5.76415,2.6391 11.22917,4.49906 5.46502,1.85997 13.608502,2.27104 13.608502,2.27104 0,0 -7.28084,2.70232 -11.870442,3.1222 -4.5896,0.41988 -10.64299,-3.64471 -13.50477,-4.47621 -2.86178,-0.8315 -10.77809,-0.44536 -10.77809,-0.44536 z" style="paint-order:stroke fill markers"/>
    <path d="m 106.96962,220.48233 c 0,0 8.71449,-4.92585 11.31563,-4.97073 2.60115,-0.0449 5.76415,2.6391 11.22917,4.49906 5.46502,1.85997 13.60851,2.27104 13.60851,2.27104 0,0 -7.28085,2.70232 -11.87045,3.1222 -4.5896,0.41988 -10.64298,-3.64471 -13.50477,-4.47621 -2.86178,-0.8315 -10.77809,-0.44536 -10.77809,-0.44536 z" style="paint-order:stroke fill markers"/>
    <path d="m 143.05108,220.50794 c 0,0 8.71449,-4.92585 11.31564,-4.97073 2.60115,-0.0449 5.76414,2.6391 11.22916,4.49906 5.46503,1.85997 13.60851,2.27104 13.60851,2.27104 0,0 -7.28084,2.70232 -11.87045,3.1222 -4.5896,0.41988 -10.64298,-3.64471 -13.50477,-4.47621 -2.86178,-0.8315 -10.77809,-0.44536 -10.77809,-0.44536 z" style="paint-order:stroke fill markers"/>
    <path d="m 179.24638,221.19216 c 0,0 8.71449,-4.92585 11.31564,-4.97073 2.60115,-0.0449 5.76414,2.6391 11.22917,4.49906 5.46502,1.85997 13.6085,2.27104 13.6085,2.27104 0,0 -7.28084,2.70232 -11.87045,3.1222 -4.5896,0.41988 -10.64298,-3.64471 -13.50477,-4.47621 -2.86178,-0.8315 -10.77809,-0.44536 -10.77809,-0.44536 z" style="paint-order:stroke fill markers"/>
    <path d="m 77.505116,232.85093 c 0,0 8.71448,-4.92585 11.31563,-4.97073 2.60115,-0.0449 5.76415,2.6391 11.229174,4.49906 5.46501,1.85997 13.6085,2.27104 13.6085,2.27104 0,0 -7.28085,2.70232 -11.87045,3.1222 -4.589594,0.41988 -10.642984,-3.64471 -13.504764,-4.47621 -2.86178,-0.8315 -10.77809,-0.44536 -10.77809,-0.44536 z" style="paint-order:stroke fill markers"/>
    <path d="m 110.04789,233.00167 c 0,0 8.71448,-4.92585 11.31563,-4.97073 2.60115,-0.0449 5.76415,2.6391 11.22917,4.49906 5.46503,1.85997 13.60851,2.27104 13.60851,2.27104 0,0 -7.28084,2.70232 -11.87045,3.1222 -4.5896,0.41988 -10.64299,-3.64471 -13.50477,-4.47621 -2.86178,-0.8315 -10.77809,-0.44536 -10.77809,-0.44536 z" style="paint-order:stroke fill markers"/>
    <path d="m 142.58023,232.93055 c 0,0 8.71449,-4.92585 11.31564,-4.97073 2.60115,-0.0449 5.76414,2.6391 11.22916,4.49906 5.46503,1.85997 13.60851,2.27104 13.60851,2.27104 0,0 -7.28084,2.70232 -11.87045,3.1222 -4.5896,0.41988 -10.64298,-3.64471 -13.50477,-4.47621 -2.86178,-0.8315 -10.77809,-0.44536 -10.77809,-0.44536 z" style="paint-order:stroke fill markers"/>
    <path d="m 172.72283,232.67877 c 0,0 8.71448,-4.92585 11.31563,-4.97073 2.60115,-0.0449 5.76415,2.6391 11.22917,4.49906 5.46502,1.85997 13.60851,2.27104 13.60851,2.27104 0,0 -7.28085,2.70232 -11.87045,3.1222 -4.58961,0.41988 -10.64299,-3.64471 -13.50477,-4.47621 -2.86179,-0.8315 -10.77809,-0.44536 -10.77809,-0.44536 z" style="paint-order:stroke fill markers"/>
    <path d="m 82.810449,77.286239 -4.131014,8.370548 -9.237679,1.342037 6.684347,6.515881 -1.577682,9.199955 8.262028,-4.343403 8.262545,4.343403 -1.578198,-9.199955 6.684346,-6.515881 -9.237162,-1.342037 z" style="paint-order:stroke fill markers"/>
    <path d="m 142.811,47.631805 -4.13101,8.370548 -9.23768,1.342037 6.68435,6.515881 -1.57769,9.199954 8.26203,-4.343402 8.26255,4.343402 -1.5782,-9.199954 6.68435,-6.515881 -9.23717,-1.342037 z" style="paint-order:stroke fill markers"/>
    <path d="m 203.85723,77.869351 -4.13101,8.370548 -9.23768,1.342037 6.68434,6.515881 -1.57768,9.199953 8.26203,-4.343399 8.26255,4.343399 -1.5782,-9.199953 6.68434,-6.515881 -9.23716,-1.342037 z" style="paint-order:stroke fill markers"/>
    <path d="" style="paint-order:stroke fill markers"/>
</svg>
