<?xml version="1.0" encoding="UTF-8" standalone="no"?>
<!-- Created with Inkscape (http://www.inkscape.org/) -->

<svg
   width="1080mm"
   height="1080mm"
   viewBox="0 0 1080 1080"
   version="1.1"
   id="svg1"
   xml:space="preserve"
   xmlns="http://www.w3.org/2000/svg"
   xmlns:svg="http://www.w3.org/2000/svg"><defs
     id="defs1" /><g
     id="layer2"><g
       id="g1"
       transform="translate(80.772905,5.7784626)"><path
         d="m 455.97754,244.09045 -33.31262,35.27327 21.51171,158.43244 c -6.14056,0.30782 -12.26332,0.91002 -18.3461,1.80475 l -24.06955,-118.1069 -9.14531,-6.85967 -6.20432,10.12566 27.06337,117.18471 c -10.42165,2.23611 -20.64112,5.33613 -30.54872,9.26685 -8.67682,3.84186 -17.05871,8.32206 -25.07361,13.40221 l -65.01869,-101.333 -13.16439,-6.69582 -5.08128,14.31909 70.46726,101.88003 c -4.95814,3.68354 -9.73605,7.60425 -14.31647,11.74804 l -102.10726,-124.94542 -47.34371,-1.61715 1.38725,48.49843 128.54703,97.81073 c -4.09855,4.53425 -7.9786,9.26174 -11.62656,14.16584 l -101.90905,-67.40474 -11.31736,1.61454 2.77187,11.54725 103.7799,64.83896 c -5.32692,8.34522 -10.00174,17.09138 -13.98089,26.15702 -3.49323,9.00837 -6.30249,18.26924 -8.4028,27.70018 l -118.52708,-25.87165 -14.0443,4.57398 6.53198,13.71663 122.87118,22.39693 c -0.89575,6.08375 -1.49892,12.20718 -1.80741,18.34875 l -161.56104,-16.25069 -34.6206,32.33229 35.27327,33.31258 161.12502,-21.87634 c 0.30833,6.08037 0.90516,12.14274 1.7889,18.16646 l -120.78365,24.61387 -6.857,9.14265 10.123,6.20697 120.29747,-27.78209 c 2.13139,9.64933 5.00468,19.12169 8.59306,28.32907 3.68212,8.23442 7.9404,16.20079 12.74157,23.837 -4.84228,2.61465 -9.83735,5.34098 -16.22692,8.38434 -4.22234,2.01107 -8.66885,4.01847 -13.18285,5.89777 -4.51405,1.87936 -9.0976,3.62986 -13.59774,5.12362 -4.50015,1.49376 -8.91765,2.73134 -13.09834,3.58573 -2.09035,0.42696 -4.12167,0.76055 -6.07486,0.98032 -1.95319,0.21988 -3.82931,0.32572 -5.60715,0.30629 -3.55568,-0.0409 -6.73689,-0.26691 -9.65001,-0.63942 -2.91313,-0.37276 -5.55848,-0.88844 -8.04608,-1.49826 -2.4876,-0.60981 -4.81836,-1.31597 -7.09746,-2.06635 -2.2791,-0.75038 -4.5086,-1.54689 -6.79623,-2.34114 -2.28762,-0.79426 -4.63449,-1.58652 -7.14766,-2.32795 -2.51318,-0.74149 -5.19339,-1.43204 -8.14914,-2.02406 -2.95574,-0.59208 -6.18792,-1.08362 -9.80326,-1.42954 -3.61535,-0.34617 -7.61547,-0.54641 -12.10744,-0.54963 -2.24598,-0.002 -4.55949,0.15135 -6.92306,0.43872 -2.36357,0.28737 -4.77754,0.70932 -7.22429,1.24725 -2.44677,0.53787 -4.92692,1.19222 -7.42248,1.94215 -2.49556,0.74992 -5.00764,1.59745 -7.5176,2.52082 -5.01991,1.84678 -10.03457,4.00047 -14.90572,6.31001 -4.87116,2.30959 -9.60236,4.77346 -14.049594,7.23752 -4.447233,2.46412 -8.612947,4.92977 -12.361105,7.24018 -3.748158,2.31036 -7.079543,4.46681 -9.853473,6.31528 -5.547859,3.69699 -8.873149,6.16208 -8.873149,6.16208 l 0.103034,76.32807 c 0,0 3.71033,-2.36993 9.787414,-5.92421 3.038544,-1.77714 6.670328,-3.85101 10.725466,-6.07224 4.055132,-2.22123 8.536118,-4.59106 13.272726,-6.96007 4.736601,-2.36896 9.730281,-4.73695 14.813241,-6.95741 5.08295,-2.22042 10.25545,-4.29403 15.34965,-6.06953 5.09418,-1.77556 10.11163,-3.25429 14.88194,-4.28861 2.38515,-0.51717 4.70814,-0.92337 6.94948,-1.19964 2.24135,-0.27612 4.40236,-0.42185 6.458,-0.42032 2.05566,0.002 4.09464,0.13704 6.11978,0.39117 2.02514,0.25413 4.0356,0.62613 6.03522,1.09927 1.99962,0.47298 3.99008,1.04838 5.96916,1.70698 1.97908,0.65855 3.94749,1.40111 5.91103,2.21167 3.92707,1.62103 7.82946,3.51333 11.72429,5.54107 3.89482,2.0278 7.78481,4.1913 11.68729,6.35762 3.90248,2.16632 7.81915,4.33672 11.76921,6.37342 3.95005,2.03674 7.93513,3.94177 11.97267,5.58074 2.01876,0.81947 4.05051,1.57098 6.09863,2.24077 2.04813,0.66975 4.11394,1.25742 6.19644,1.74396 2.08246,0.48627 4.18292,0.87172 6.30475,1.1415 2.12178,0.26998 4.26544,0.42441 6.43155,0.44384 2.16612,0.0204 4.28493,-0.0936 6.36289,-0.31959 2.07796,-0.22601 4.11419,-0.56528 6.11714,-1.0041 2.00294,-0.43873 3.97265,-0.97716 5.91367,-1.59603 1.94097,-0.61882 3.85505,-1.31878 5.74719,-2.08481 3.78433,-1.53206 7.48598,-3.32648 11.15352,-5.25043 3.66759,-1.92399 7.30241,-3.97914 10.95798,-6.03261 3.65563,-2.05346 7.33376,-4.10412 11.08219,-6.02464 3.74849,-1.92051 7.56948,-3.70936 11.51554,-5.23457 1.97304,-0.7626 3.97726,-1.45971 6.01937,-2.07428 2.04212,-0.61457 4.12238,-1.14907 6.24661,-1.58278 2.12429,-0.43361 4.29398,-0.76823 6.51352,-0.98825 2.2195,-0.21988 4.48946,-0.32521 6.81736,-0.29862 2.32785,0.0256 4.60512,0.18101 6.83848,0.44639 2.2334,0.26538 4.42477,0.64249 6.57426,1.11507 2.14955,0.47247 4.26008,1.04092 6.3365,1.68847 2.07638,0.64761 4.119,1.37365 6.13299,2.16412 4.02793,1.58099 7.94255,3.41709 11.78502,5.37729 3.84252,1.9602 7.61442,4.04741 11.35703,6.13033 3.74255,2.08291 7.45698,4.16282 11.18522,6.11187 3.72829,1.94905 7.47023,3.76577 11.2698,5.32441 1.89975,0.77933 3.81618,1.49351 5.74984,2.1271 1.93366,0.63365 3.88527,1.18778 5.86347,1.64358 1.97819,0.4556 3.98323,0.81363 6.01671,1.05959 2.03347,0.24595 4.09696,0.37889 6.19639,0.38299 2.09948,0.004 4.15934,-0.12426 6.18586,-0.3697 2.02652,-0.24544 4.02092,-0.60598 5.98501,-1.06756 1.96408,-0.46174 3.89851,-1.02292 5.81064,-1.66731 1.91208,-0.64443 3.80259,-1.37278 5.6732,-2.16677 3.74117,-1.58795 7.40979,-3.44108 11.04782,-5.42745 3.63804,-1.98643 7.24683,-4.10704 10.86549,-6.22549 3.61871,-2.11846 7.24846,-4.23605 10.9316,-6.22017 3.68314,-1.98418 7.41991,-3.83613 11.25128,-5.41958 1.91572,-0.7917 3.85536,-1.51723 5.82384,-2.1588 1.96848,-0.64162 3.96652,-1.19867 5.99825,-1.65682 2.03174,-0.45816 4.09885,-0.81553 6.20432,-1.05693 2.10547,-0.24135 4.2498,-0.36816 6.43948,-0.35947 2.18969,0.0102 4.36158,0.14982 6.51613,0.40447 2.15456,0.25464 4.29403,0.62367 6.41837,1.09134 2.12438,0.46787 4.23471,1.03248 6.33384,1.68055 2.09912,0.64806 4.18629,1.37886 6.26511,2.1747 4.15766,1.59163 8.28141,3.44634 12.38752,5.43272 4.10607,1.98643 8.19837,4.10601 12.29237,6.22548 4.09404,2.11948 8.19207,4.23988 12.31358,6.23076 4.1215,1.99088 8.2677,3.85326 12.45619,5.45389 2.09427,0.80034 4.19958,1.5342 6.31799,2.18789 2.11835,0.65369 4.24974,1.22736 6.39719,1.70172 2.1475,0.47452 4.31085,0.85014 6.49236,1.11246 2.18155,0.26231 4.38284,0.4106 6.60336,0.42798 2.22047,0.0153 4.43163,-0.17538 6.63768,-0.54431 2.20604,-0.36867 4.40769,-0.91329 6.60863,-1.60129 2.20088,-0.688 4.40084,-1.51994 6.60597,-2.46008 2.20513,-0.94009 4.41639,-1.98756 6.63501,-3.11275 4.43731,-2.25027 8.9103,-4.80566 13.4577,-7.39337 4.54744,-2.58776 9.16949,-5.20855 13.90163,-7.59689 2.36609,-1.19417 4.76108,-2.33066 7.1873,-3.37434 2.42623,-1.04363 4.88447,-1.99604 7.38019,-2.82205 2.49576,-0.82606 5.03024,-1.52771 7.60481,-2.06901 2.57456,-0.5413 5.19044,-0.92296 7.85316,-1.11246 2.66277,-0.18919 5.37305,-0.18459 8.13328,0.046 2.76023,0.22959 5.57277,0.68498 8.43982,1.40044 2.86705,0.71551 5.78952,1.69083 8.77275,2.9595 2.98317,1.26867 6.02867,2.83039 9.13738,4.7193 3.10865,1.88892 6.20626,3.63692 9.2827,5.25309 3.07644,1.61612 6.13063,3.10165 9.15323,4.46563 3.02265,1.36403 6.01584,2.60647 8.96302,3.73898 2.94717,1.1325 5.85124,2.15414 8.70136,3.07577 5.70025,1.84326 11.18461,3.28665 16.36698,4.41015 5.18237,1.1235 10.0653,1.92829 14.55696,2.49705 4.4916,0.56876 8.59296,0.90168 12.22103,1.0807 3.62806,0.17897 6.7836,0.20402 9.3752,0.15852 5.18313,-0.0915 8.12008,-0.46787 8.12008,-0.46787 L 852.0509,778.3111 c -6.24083,0.23215 -12.10189,0.31907 -17.61157,0.27766 -5.50962,-0.0409 -10.66979,-0.2117 -15.51345,-0.49651 -4.84366,-0.28481 -9.37331,-0.68345 -13.61626,-1.18113 -4.24289,-0.49753 -8.2019,-1.09553 -11.90922,-1.77571 -3.70737,-0.68012 -7.16343,-1.44293 -10.40048,-2.27508 -3.23699,-0.83219 -6.2553,-1.73362 -9.08716,-2.68731 -2.83187,-0.95374 -5.47751,-1.95958 -7.96945,-3.00439 -2.49198,-1.04486 -4.83266,-2.12879 -7.04991,-3.23429 -4.43444,-2.21106 -8.38321,-4.51191 -12.11007,-6.78305 -3.72686,-2.27109 -7.23215,-4.51298 -10.77304,-6.60065 -3.54083,-2.08768 -7.12108,-4.02307 -10.99761,-5.68378 -1.93826,-0.83036 -3.94959,-1.59189 -6.06958,-2.26981 -2.11999,-0.67798 -4.34736,-1.27266 -6.71432,-1.76779 -2.85028,-0.59621 -6.37823,-1.0694 -10.36607,-1.44012 -3.98789,-0.37071 -8.43675,-0.6387 -13.13535,-0.82703 -9.39718,-0.37685 -19.79127,-0.43208 -29.47056,-0.33799 -9.6793,0.0941 -18.64829,0.33799 -25.19521,0.55756 -6.54686,0.21936 -10.67527,0.41469 -10.67527,0.41469 l -8.48471,-2.11656 c 0.44128,-0.53225 0.88021,-1.06695 1.31592,-1.6039 6.99121,-10.46368 12.93858,-21.59102 17.75422,-33.21752 2.89231,-7.71122 5.28627,-15.60192 7.16619,-23.6203 l 117.37759,25.62058 14.04434,-4.57398 -6.53198,-13.71663 -120.8973,-22.03757 c 0.90603,-6.13569 1.51457,-12.31271 1.82321,-18.50726 l 159.57136,16.04985 34.62057,-32.33225 -35.27328,-33.31263 -157.65029,21.40602 c -0.0102,-0.35742 -0.0204,-0.71531 -0.0358,-1.07283 -0.27459,-4.18271 -0.68631,-8.35596 -1.234,-12.51173 -0.24237,-1.59121 -0.5052,-3.17957 -0.7874,-4.76425 l 117.57316,-23.96115 6.85965,-9.14535 -10.12564,-6.20432 -116.66949,26.94447 c -0.53347,-2.51806 -1.11767,-5.02564 -1.75188,-7.52023 -1.08469,-4.04966 -2.30192,-8.06348 -3.64913,-12.03348 -1.34828,-3.96922 -2.82635,-7.89402 -4.43132,-11.76655 -1.60349,-3.87269 -3.33364,-7.69261 -5.18702,-11.45214 -1.22393,-2.41166 -2.49889,-4.79769 -3.8235,-7.15555 l 101.86413,-65.36482 6.69847,-13.16439 -14.31913,-5.07867 -102.01477,70.5571 c -0.32163,-0.52207 -0.64576,-1.04271 -0.9724,-1.56166 -2.32933,-3.48489 -4.77244,-6.89303 -7.32471,-10.21814 -0.86221,-1.07508 -1.73608,-2.141 -2.62125,-3.19726 l 124.25048,-101.53918 1.61714,-47.34107 -48.49842,1.38464 -96.55296,126.89284 c -1.29674,-1.24883 -2.61112,-2.4795 -3.94243,-3.69142 -3.15156,-2.76432 -6.3931,-5.42504 -9.71872,-7.97737 -0.14522,-0.10431 -0.29043,-0.20811 -0.43617,-0.31191 l 66.07829,-99.90086 -1.61715,-11.31474 -11.54724,2.76923 -63.18219,101.1322 c -3.33109,-2.21765 -6.7313,-4.3311 -10.19436,-6.33645 -3.63078,-2.09682 -7.32992,-4.07466 -11.09011,-5.92952 -3.75954,-1.85333 -7.57945,-3.58348 -11.45209,-5.18703 -3.87259,-1.60405 -7.79738,-3.08124 -11.76661,-4.42861 -3.96994,-1.34818 -7.98376,-2.56623 -12.03342,-3.65179 -0.15851,-0.0358 -0.31703,-0.0741 -0.47554,-0.11096 l 25.38547,-116.29949 -4.57398,-14.04432 -13.71668,6.53196 -21.97411,120.55645 c -3.08462,-0.58758 -6.18356,-1.09952 -9.29329,-1.53523 -3.05297,-0.37532 -6.11484,-0.67778 -9.18228,-0.90634 L 488.3085,278.70953 Z"
         style="display:inline;fill:#191c1b;stroke-width:1.3529"
         id="path39" /><path
         style="display:inline;fill:#191c1b;stroke-width:1.3529"
         d="m 92.33678,870.52774 c 0,0 44.5601,-25.18753 57.86065,-25.41702 13.30055,-0.22959 29.47403,13.49461 57.41853,23.00521 27.9445,9.51066 69.58488,11.6126 69.58488,11.6126 0,0 -37.22941,13.81787 -60.6976,15.96486 -23.46819,2.14699 -54.42118,-18.63663 -69.05445,-22.88837 -14.63327,-4.25174 -55.11201,-2.27728 -55.11201,-2.27728 z"
         id="path5" /><path
         style="display:inline;fill:#191c1b;stroke-width:1.3529"
         d="m 283.47204,874.09281 c 0,0 44.56013,-25.18753 57.86069,-25.41702 13.30056,-0.22959 29.474,13.49461 57.41854,23.00521 27.94449,9.51066 69.58485,11.6126 69.58485,11.6126 0,0 -37.22939,13.81787 -60.69761,15.96486 -23.46818,2.14699 -54.42115,-18.63663 -69.05445,-22.88837 -14.63325,-4.25174 -55.11202,-2.27728 -55.11202,-2.27728 z"
         id="path5-9" /><path
         style="display:inline;fill:#191c1b;stroke-width:1.3529"
         d="m 475.64272,874.98028 c 0,0 44.56008,-25.18753 57.86064,-25.41702 13.30056,-0.22959 29.47405,13.49461 57.41854,23.00521 27.94449,9.51066 69.5849,11.6126 69.5849,11.6126 0,0 -37.22944,13.81787 -60.69761,15.96486 -23.46823,2.14699 -54.42121,-18.63663 -69.05445,-22.88837 -14.6333,-4.25174 -55.11202,-2.27728 -55.11202,-2.27728 z"
         id="path5-1" /><path
         style="display:inline;fill:#191c1b;stroke-width:1.3529"
         d="m 667.62411,877.78786 c 0,0 44.56013,-25.18753 57.86069,-25.41702 13.30055,-0.22959 29.47399,13.49461 57.41848,23.00521 27.94455,9.51066 69.58491,11.6126 69.58491,11.6126 0,0 -37.2294,13.81787 -60.69762,15.96486 -23.46817,2.14699 -54.42115,-18.63663 -69.05445,-22.88837 -14.63325,-4.25174 -55.11201,-2.27728 -55.11201,-2.27728 z"
         id="path5-0" /><path
         style="display:inline;fill:#191c1b;stroke-width:1.3529"
         d="m 94.31807,930.57315 c 0,0 44.56008,-25.18753 57.86064,-25.41702 13.30055,-0.22959 29.47404,13.49461 57.41853,23.00521 27.9445,9.51066 69.58487,11.6126 69.58487,11.6126 0,0 -37.22939,13.81787 -60.69758,15.96486 -23.46817,2.14699 -54.4212,-18.63663 -69.05445,-22.88837 -14.63324,-4.25174 -55.11201,-2.27728 -55.11201,-2.27728 z"
         id="path5-07" /><path
         style="display:inline;fill:#191c1b;stroke-width:1.3529"
         d="m 275.63136,931.47489 c 0,0 44.56012,-25.18753 57.86063,-25.41702 13.30056,-0.22959 29.47405,13.49461 57.41854,23.00521 27.94449,9.51066 69.5849,11.6126 69.5849,11.6126 0,0 -37.22944,13.81787 -60.69761,15.96486 -23.46818,2.14699 -54.42115,-18.63663 -69.05445,-22.88837 -14.63325,-4.25174 -55.11201,-2.27728 -55.11201,-2.27728 z"
         id="path5-5" /><path
         style="display:inline;fill:#191c1b;stroke-width:1.3529"
         d="m 460.12804,931.60584 c 0,0 44.56013,-25.18753 57.86069,-25.41702 13.30056,-0.22959 29.47399,13.49461 57.41848,23.00521 27.94455,9.51066 69.58491,11.6126 69.58491,11.6126 0,0 -37.22939,13.81787 -60.69762,15.96486 -23.46817,2.14699 -54.42115,-18.63663 -69.05445,-22.88837 -14.63324,-4.25174 -55.11201,-2.27728 -55.11201,-2.27728 z"
         id="path5-18" /><path
         style="display:inline;fill:#191c1b;stroke-width:1.3529"
         d="m 645.20683,935.10449 c 0,0 44.56013,-25.18753 57.86069,-25.41702 13.30055,-0.22959 29.47399,13.49461 57.41853,23.00521 27.94449,9.51066 69.58486,11.6126 69.58486,11.6126 0,0 -37.2294,13.81787 -60.69762,15.96486 -23.46818,2.14699 -54.42115,-18.63663 -69.05445,-22.88837 -14.63325,-4.25174 -55.11201,-2.27728 -55.11201,-2.27728 z"
         id="path5-00" /><path
         style="display:inline;fill:#191c1b;stroke-width:1.3529"
         d="m 124.9694,994.71972 c 0,0 44.56008,-25.18754 57.86064,-25.41702 13.30055,-0.22959 29.47404,13.49461 57.41855,23.00521 27.94444,9.51069 69.58486,11.61259 69.58486,11.61259 0,0 -37.22945,13.8179 -60.69762,15.9649 -23.46814,2.147 -54.42117,-18.6367 -69.05442,-22.88841 -14.63325,-4.25174 -55.11201,-2.27727 -55.11201,-2.27727 z"
         id="path5-4" /><path
         style="display:inline;fill:#191c1b;stroke-width:1.3529"
         d="m 291.37159,995.4905 c 0,0 44.56008,-25.18753 57.86063,-25.41702 13.30056,-0.22959 29.47405,13.49461 57.41854,23.00521 27.94455,9.51061 69.58491,11.61261 69.58491,11.61261 0,0 -37.2294,13.8179 -60.69762,15.9649 -23.46817,2.1469 -54.4212,-18.6367 -69.05445,-22.88842 -14.63325,-4.25174 -55.11201,-2.27728 -55.11201,-2.27728 z"
         id="path5-58" /><path
         style="display:inline;fill:#191c1b;stroke-width:1.3529"
         d="m 457.72043,995.12684 c 0,0 44.56012,-25.18753 57.86068,-25.41702 13.30056,-0.22959 29.474,13.49461 57.41849,23.00521 27.94454,9.51067 69.5849,11.61257 69.5849,11.61257 0,0 -37.22939,13.8179 -60.69761,15.9649 -23.46818,2.147 -54.42115,-18.6366 -69.05445,-22.88838 -14.63325,-4.25174 -55.11201,-2.27728 -55.11201,-2.27728 z"
         id="path5-92" /><path
         style="display:inline;fill:#191c1b;stroke-width:1.3529"
         d="m 611.84971,993.8394 c 0,0 44.56008,-25.18753 57.86064,-25.41702 13.30056,-0.22958 29.47405,13.49461 57.41854,23.00522 27.94449,9.5107 69.5849,11.6126 69.5849,11.6126 0,0 -37.22944,13.8179 -60.69761,15.9649 -23.46823,2.1469 -54.42121,-18.6367 -69.05445,-22.88842 -14.6333,-4.25174 -55.11202,-2.27728 -55.11202,-2.27728 z"
         id="path5-2" /><path
         d="m 152.09736,199.26494 -21.12327,42.80143 -47.235372,6.86229 34.179322,33.3179 -8.06722,47.04248 42.24654,-22.20929 42.24918,22.20929 -8.06986,-47.04248 34.17932,-33.3179 -47.23273,-6.86229 z"
         style="stroke-width:1.3529"
         id="path41" /><path
         d="m 458.90043,47.631805 -21.12325,42.801438 -47.23537,6.862288 34.17933,33.317899 -8.06726,47.04247 42.24655,-22.20928 42.24921,22.20928 -8.06987,-47.04247 34.17934,-33.317899 -47.23277,-6.862288 z"
         style="stroke-width:1.3529"
         id="path41-5" /><path
         d="m 771.05041,202.24659 -21.12325,42.80143 -47.23537,6.86229 34.17928,33.3179 -8.06721,47.04247 42.24655,-22.20927 42.24921,22.20927 -8.06987,-47.04247 34.17929,-33.3179 -47.23272,-6.86229 z"
         style="stroke-width:1.3529"
         id="path41-8" /></g></g></svg>
