<?xml version="1.0" encoding="UTF-8"?>
<svg version="1.1" viewBox="0 0 1080 1080" xml:space="preserve" xmlns="http://www.w3.org/2000/svg">

   <path d="m 203.85722,77.869399 -4.131,8.370491 -9.23767,1.342108 6.68433,6.515808 -1.57766,9.200024 8.262,-4.343407 8.2625,4.343407 -1.57817,-9.200024 6.68434,-6.515808 -9.23716,-1.342108 z" style="paint-order:stroke fill markers"/>
   <path d="m 172.72283,232.67877 c 0,0 8.71448,-4.92585 11.31563,-4.97073 2.60115,-0.0449 5.76415,2.6391 11.22917,4.49906 5.46502,1.85997 13.60851,2.27104 13.60851,2.27104 0,0 -7.28085,2.70232 -11.87045,3.1222 -4.58961,0.41988 -10.64299,-3.64471 -13.50477,-4.47621 -2.86179,-0.8315 -10.77809,-0.44536 -10.77809,-0.44536 z m -30.1426,0.25178 c 0,0 8.71449,-4.92585 11.31564,-4.97073 2.60115,-0.0449 5.76414,2.6391 11.22916,4.49906 5.46503,1.85997 13.60851,2.27104 13.60851,2.27104 0,0 -7.28084,2.70232 -11.87045,3.1222 -4.5896,0.41988 -10.64298,-3.64471 -13.50477,-4.47621 -2.86178,-0.8315 -10.77809,-0.44536 -10.77809,-0.44536 z m -32.53234,0.0711 c 0,0 8.71448,-4.92585 11.31563,-4.97073 2.60115,-0.0449 5.76415,2.6391 11.22917,4.49906 5.46503,1.85997 13.60851,2.27104 13.60851,2.27104 0,0 -7.28084,2.70232 -11.87045,3.1222 -4.5896,0.41988 -10.64299,-3.64471 -13.50477,-4.47621 -2.86178,-0.8315 -10.77809,-0.44536 -10.77809,-0.44536 z m -32.542774,-0.15074 c 0,0 8.71448,-4.92585 11.31563,-4.97073 2.60115,-0.0449 5.76415,2.6391 11.229174,4.49906 5.46501,1.85997 13.6085,2.27104 13.6085,2.27104 0,0 -7.28085,2.70232 -11.87045,3.1222 -4.589594,0.41988 -10.642984,-3.64471 -13.504764,-4.47621 -2.86178,-0.8315 -10.77809,-0.44536 -10.77809,-0.44536 z M 179.24638,221.19216 c 0,0 8.71449,-4.92585 11.31564,-4.97073 2.60115,-0.0449 5.76414,2.6391 11.22917,4.49906 5.46502,1.85997 13.6085,2.27104 13.6085,2.27104 0,0 -7.28084,2.70232 -11.87045,3.1222 -4.5896,0.41988 -10.64298,-3.64471 -13.50477,-4.47621 -2.86178,-0.8315 -10.77809,-0.44536 -10.77809,-0.44536 z m -36.1953,-0.68422 c 0,0 8.71449,-4.92585 11.31564,-4.97073 2.60115,-0.0449 5.76414,2.6391 11.22916,4.49906 5.46503,1.85997 13.60851,2.27104 13.60851,2.27104 0,0 -7.28084,2.70232 -11.87045,3.1222 -4.5896,0.41988 -10.64298,-3.64471 -13.50477,-4.47621 -2.86178,-0.8315 -10.77809,-0.44536 -10.77809,-0.44536 z m -36.08146,-0.0256 c 0,0 8.71449,-4.92585 11.31563,-4.97073 2.60115,-0.0449 5.76415,2.6391 11.22917,4.49906 5.46502,1.85997 13.60851,2.27104 13.60851,2.27104 0,0 -7.28085,2.70232 -11.87045,3.1222 -4.5896,0.41988 -10.64298,-3.64471 -13.50477,-4.47621 -2.86178,-0.8315 -10.77809,-0.44536 -10.77809,-0.44536 z m -35.458892,-0.17635 c 0,0 8.71448,-4.92585 11.31563,-4.97073 2.60115,-0.0449 5.76415,2.6391 11.22917,4.49906 5.46502,1.85997 13.608502,2.27104 13.608502,2.27104 0,0 -7.28084,2.70232 -11.870442,3.1222 -4.5896,0.41988 -10.64299,-3.64471 -13.50477,-4.47621 -2.86178,-0.8315 -10.77809,-0.44536 -10.77809,-0.44536 z M 183.63046,209.98292 c 0,0 8.71449,-4.92585 11.31564,-4.97073 2.60115,-0.0449 5.76414,2.6391 11.22916,4.49906 5.46503,1.85997 13.60851,2.27104 13.60851,2.27104 0,0 -7.28084,2.70232 -11.87045,3.1222 -4.5896,0.41988 -10.64298,-3.64471 -13.50477,-4.47621 -2.86178,-0.8315 -10.77809,-0.44536 -10.77809,-0.44536 z m -37.54522,-0.54907 c 0,0 8.71448,-4.92585 11.31563,-4.97073 2.60115,-0.0449 5.76415,2.6391 11.22917,4.49906 5.46502,1.85997 13.60851,2.27104 13.60851,2.27104 0,0 -7.28085,2.70232 -11.87045,3.1222 -4.58961,0.41988 -10.64299,-3.64471 -13.50477,-4.47621 -2.86179,-0.8315 -10.77809,-0.44536 -10.77809,-0.44536 z M 108.503,209.26029 c 0,0 8.71449,-4.92585 11.31564,-4.97073 2.60115,-0.0449 5.76414,2.6391 11.22917,4.49906 5.46502,1.85997 13.6085,2.27104 13.6085,2.27104 0,0 -7.28084,2.70232 -11.87045,3.1222 -4.5896,0.41988 -10.64298,-3.64471 -13.50477,-4.47621 -2.86178,-0.8315 -10.77809,-0.44536 -10.77809,-0.44536 z m -37.379747,-0.69721 c 0,0 8.714484,-4.92585 11.315633,-4.97073 2.601149,-0.0449 5.764147,2.6391 11.229168,4.49906 5.465022,1.85997 13.608506,2.27104 13.608506,2.27104 0,0 -7.280844,2.70232 -11.870447,3.1222 -4.589603,0.41988 -10.642986,-3.64471 -13.50477,-4.47621 -2.861784,-0.8315 -10.77809,-0.44536 -10.77809,-0.44536 z M 143.59744,25.781889 c 0,0 -0.45192,0.883255 -1.40457,2.276347 -0.47632,0.696545 -1.07764,1.520707 -1.81022,2.425691 -0.73259,0.904984 -1.59636,1.890735 -2.59726,2.910934 -1.00091,1.020199 -2.13917,2.074931 -3.42046,3.117122 -0.64065,0.521096 -1.31685,1.039111 -2.02986,1.548226 -0.713,0.509115 -1.4626,1.009002 -2.24947,1.494483 -0.78687,0.48548 -1.61099,0.956438 -2.47323,1.406632 -0.86225,0.450194 -1.76304,0.879872 -2.70216,1.283126 -0.93913,0.403254 -1.91667,0.779818 -2.93419,1.124479 -1.01752,0.344661 -2.075,0.657311 -3.17242,0.931726 -1.09742,0.274416 -2.17773,0.495028 -3.23959,0.66766 -1.06187,0.172631 -2.10504,0.297173 -3.12695,0.379305 -1.0219,0.08213 -2.02279,0.12214 -3.00033,0.125057 -0.97754,0.0029 -1.93203,-0.0311 -2.86081,-0.09612 -0.92877,-0.06501 -1.83172,-0.161009 -2.70732,-0.28267 -0.87561,-0.12166 -1.72342,-0.269126 -2.54145,-0.436149 -1.636055,-0.334045 -3.152707,-0.747489 -4.532025,-1.195276 -1.379317,-0.447786 -2.621473,-0.929695 -3.708817,-1.400948 -1.087344,-0.471252 -2.020059,-0.931909 -2.780192,-1.336352 -1.520267,-0.808887 -2.350761,-1.393714 -2.350761,-1.393714 0,0 -0.592154,1.142405 -1.562695,2.935738 -0.970542,1.793334 -2.31931,4.2373 -3.833358,6.84041 -0.757024,1.301555 -1.5555,2.642966 -2.368331,3.962549 -0.812832,1.319582 -1.640405,2.617658 -2.455664,3.832324 -0.81526,1.214666 -1.617975,2.345809 -2.382284,3.332613 -0.764308,0.986804 -1.489761,1.828968 -2.149739,2.464966 -0.659978,0.635998 -1.548529,1.324157 -2.597775,2.040702 -1.049245,0.716545 -2.259366,1.461938 -3.56309,2.213302 -1.303723,0.751364 -2.700885,1.508503 -4.124296,2.248958 -1.423411,0.740455 -2.873083,1.463853 -4.281392,2.147673 -2.816617,1.367638 -5.4681,2.576471 -7.415568,3.4432 -1.947469,0.86673 -3.19102,1.391647 -3.19102,1.391647 0,0 1.689903,2.221949 3.517615,4.663281 1.827712,2.441332 3.793234,5.10174 4.344954,5.978446 0.13793,0.219177 0.302164,0.589809 0.483692,1.070736 0.181527,0.480927 0.380335,1.07213 0.588078,1.732194 0.415485,1.320128 0.866042,2.916098 1.282092,4.457092 0.8321,3.081988 1.526522,5.944861 1.526522,5.944861 v 106.94902 c 0,0 0.434821,1.4129 1.365291,3.68143 0.465235,1.13427 1.054041,2.48251 1.774569,3.97495 0.720528,1.49245 1.57273,3.12869 2.563668,4.84002 0.495468,0.85567 1.025728,1.73004 1.591634,2.61431 0.565905,0.88427 1.167342,1.7788 1.805574,2.67426 0.638232,0.89546 1.313268,1.79225 2.025716,2.68149 0.712448,0.88923 1.462472,1.77092 2.251026,2.63653 0.788553,0.8656 1.61547,1.71482 2.482019,2.53938 0.866549,0.82455 1.77278,1.62445 2.719214,2.39055 0.946433,0.7661 1.933368,1.49827 2.961576,2.1885 1.028208,0.69022 2.097751,1.33833 3.209623,1.93528 1.111872,0.59694 2.224758,1.14813 3.336231,1.65726 1.111472,0.50913 2.221362,0.97621 3.326928,1.4056 1.105567,0.42939 2.206936,0.821 3.301091,1.17874 1.094154,0.35774 2.180964,0.68147 3.258199,0.97565 2.154471,0.58836 4.269885,1.05813 6.323645,1.44074 2.05376,0.38261 4.04621,0.6783 5.95519,0.91984 3.81798,0.48307 7.30231,0.7484 10.27689,1.05523 1.4873,0.15342 2.84727,0.31763 4.05764,0.524 0.60518,0.10319 1.17298,0.21665 1.70067,0.3452 0.52769,0.12855 1.01517,0.27208 1.45986,0.43408 0.88938,0.324 1.83015,0.72492 2.79569,1.17874 0.96555,0.45382 1.95583,0.96054 2.94401,1.49552 1.97637,1.06995 3.94432,2.25327 5.69009,3.35587 1.74577,1.10259 3.26934,2.12416 4.35632,2.8701 1.08699,0.74595 1.73737,1.21647 1.73737,1.21647 0,0 0.66772,-0.53173 1.76475,-1.36581 1.09702,-0.83409 2.62366,-1.97041 4.34133,-3.17965 1.71768,-1.20924 3.62661,-2.49138 5.48856,-3.61683 0.93097,-0.56273 1.84976,-1.08629 2.72748,-1.54203 0.87772,-0.45573 1.714,-0.84396 2.47892,-1.13533 0.38246,-0.14569 0.82915,-0.26327 1.3348,-0.35967 0.50565,-0.0964 1.0704,-0.17125 1.68879,-0.23151 1.23676,-0.12052 2.6885,-0.18236 4.31343,-0.23719 1.62492,-0.0548 3.42325,-0.10309 5.35264,-0.19741 1.9294,-0.0943 3.99002,-0.2344 6.1402,-0.47335 1.07508,-0.11948 2.17254,-0.26338 3.28713,-0.43874 1.1146,-0.17535 2.24634,-0.38194 3.38998,-0.62632 1.14363,-0.24437 2.29907,-0.52663 3.46129,-0.85317 1.16221,-0.32655 2.33125,-0.69745 3.50159,-1.11931 1.17034,-0.42187 2.34187,-0.89492 3.50986,-1.42524 1.168,-0.53032 2.33245,-1.11799 3.48765,-1.76992 1.15519,-0.65192 2.30145,-1.36823 3.43338,-2.15491 1.13193,-0.78667 2.24939,-1.64408 3.3476,-2.57865 1.0982,-0.93457 2.13414,-1.88392 3.11092,-2.84324 0.97678,-0.95931 1.89454,-1.92814 2.75694,-2.90111 0.86239,-0.97297 1.66909,-1.95039 2.42414,-2.92592 0.75504,-0.97554 1.45831,-1.9496 2.11305,-2.91662 0.65473,-0.96702 1.26116,-1.92683 1.82263,-2.87424 0.56146,-0.94741 1.07816,-1.88208 1.55339,-2.7988 0.47523,-0.91672 0.9088,-1.81534 1.30483,-2.69027 0.39603,-0.87494 0.7541,-1.7261 1.07797,-2.54817 0.64775,-1.64414 1.15824,-3.17156 1.55959,-4.53771 0.40135,-1.36614 0.6936,-2.57138 0.90486,-3.57084 0.42252,-1.99892 0.52141,-3.17551 0.52141,-3.17551 L 227.06108,93.347791 c 0,0 0.63792,-1.540571 1.4521,-3.450953 0.81419,-1.910381 1.80468,-4.190668 2.51044,-5.668904 0.35289,-0.739118 0.95931,-1.72393 1.67019,-2.785877 0.71087,-1.061947 1.52614,-2.200976 2.29753,-3.247347 1.54278,-2.09274 2.90938,-3.815787 2.90938,-3.815787 0,0 -1.0208,-0.239792 -2.65306,-0.703317 -1.63226,-0.463525 -3.87607,-1.150705 -6.3221,-2.045353 -1.22301,-0.447324 -2.49681,-0.946487 -3.76979,-1.495516 -1.27299,-0.549029 -2.54501,-1.148039 -3.76567,-1.794722 -1.22065,-0.646684 -2.3896,-1.341239 -3.4556,-2.081527 -0.533,-0.370144 -1.04051,-0.751847 -1.51567,-1.144633 -0.47515,-0.392786 -0.91839,-0.796891 -1.32292,-1.211812 -0.80904,-0.829842 -1.67461,-1.802158 -2.57038,-2.868559 -0.89577,-1.066401 -1.8214,-2.226614 -2.75022,-3.432349 -1.85765,-2.41147 -3.72771,-5.004278 -5.39554,-7.38973 -1.66782,-2.385451 -3.13356,-4.563732 -4.18217,-6.145361 -1.04861,-1.581628 -1.68,-2.566768 -1.68,-2.566768 0,0 -0.74562,0.411329 -2.13631,0.975651 -0.69534,0.282161 -1.55189,0.602807 -2.55746,0.929142 -1.00557,0.326335 -2.16011,0.658376 -3.45095,0.964282 -1.29084,0.305906 -2.71785,0.58528 -4.26899,0.806153 -1.55115,0.220872 -3.22612,0.383 -5.01262,0.454235 -0.89325,0.03562 -1.8147,0.04853 -2.7621,0.03462 -0.94741,-0.0139 -1.92076,-0.05459 -2.9192,-0.126091 -0.99845,-0.0715 -2.02168,-0.173399 -3.06803,-0.310575 -1.04636,-0.137177 -2.11589,-0.309456 -3.20704,-0.520382 -1.09116,-0.210926 -2.14596,-0.469157 -3.16415,-0.768428 -1.01819,-0.299272 -2.00021,-0.639296 -2.94608,-1.013375 -0.94586,-0.37408 -1.85537,-0.782663 -2.72954,-1.218014 -0.87418,-0.435351 -1.71302,-0.897709 -2.51613,-1.380794 -0.80311,-0.483085 -1.57053,-0.986502 -2.30322,-1.503784 -0.73269,-0.517283 -1.4305,-1.048524 -2.09341,-1.586467 -0.66291,-0.537942 -1.29088,-1.082742 -1.88464,-1.627807 -0.59376,-0.545065 -1.15321,-1.090191 -1.67845,-1.628841 -1.05049,-1.077302 -1.96481,-2.128614 -2.74505,-3.099036 -0.78024,-0.970422 -1.42641,-1.8601 -1.94149,-2.615344 -1.03015,-1.51049 -1.5353,-2.482536 -1.5353,-2.482536 z m -0.78652,21.849829 4.13153,8.370548 9.23716,1.342037 -6.68434,6.515882 1.5782,9.199955 -8.26255,-4.343404 -8.26203,4.343404 1.57768,-9.199955 -6.68434,-6.515882 9.23768,-1.342037 z m -60.000471,29.654521 4.131531,8.370548 9.237162,1.342037 -6.684346,6.515881 1.578198,9.199955 -8.262545,-4.343403 -8.262028,4.343403 1.577682,-9.199955 -6.684347,-6.515881 9.237679,-1.342037 z m 121.046871,0.58291 4.13153,8.370548 9.23717,1.342037 -6.68435,6.515882 1.5782,9.199954 -8.26255,-4.343403 -8.26202,4.343403 1.57768,-9.199954 -6.68435,-6.515882 9.23768,-1.342037 z m -61.61794,8.18348 6.32261,6.770129 -3.12022,31.019812 c 0.59987,0.0447 1.1982,0.10385 1.79524,0.17725 0.60815,0.0852 1.21423,0.18533 1.81746,0.30024 l 4.29793,-23.57686 2.68252,-1.277437 0.89452,2.746607 -4.96507,22.74434 c 0.031,0.007 0.062,0.0147 0.093,0.0217 0.79195,0.21229 1.57697,0.45051 2.35334,0.71417 0.77623,0.26349 1.54382,0.5524 2.30115,0.86609 0.75734,0.31359 1.50444,0.65197 2.23966,1.01441 0.73535,0.36274 1.45882,0.74956 2.16886,1.15962 0.67725,0.39217 1.34225,0.80551 1.99367,1.2392 l 12.35636,-19.77812 2.25826,-0.54157 0.31626,2.21279 -12.92273,19.53731 c 0.0285,0.0203 0.0579,0.0406 0.0863,0.061 0.65036,0.49914 1.28434,1.01953 1.90066,1.56011 0.26035,0.23701 0.51742,0.4777 0.77101,0.72192 l 18.88257,-24.81605 9.48469,-0.27079 -0.31626,9.25835 -24.29929,19.85771 c 0.17311,0.20656 0.34402,0.41504 0.51263,0.62528 0.49913,0.65026 0.97694,1.31682 1.43247,1.99833 0.0639,0.10149 0.12727,0.20331 0.19017,0.30541 l 19.95072,-13.79864 2.80035,0.99322 -1.31,2.57452 -19.92126,12.7832 c 0.25903,0.46109 0.5084,0.92777 0.74775,1.39939 0.36245,0.73522 0.70083,1.48231 1.01441,2.23966 0.31387,0.75732 0.60294,1.52492 0.86662,2.30115 0.26345,0.77638 0.50152,1.56139 0.71365,2.35335 0.12402,0.48784 0.23828,0.97827 0.34261,1.47071 l 22.8167,-5.26945 1.98024,1.21336 -1.34152,1.78853 -22.99343,4.68601 c 0.0552,0.30991 0.10608,0.62055 0.15348,0.93173 0.1071,0.81271 0.18814,1.6289 0.24184,2.44688 0.003,0.0699 0.005,0.13991 0.007,0.20981 l 30.83119,-4.18631 6.89829,6.51485 -6.77064,6.32312 -31.20689,-3.13882 c -0.0603,1.21141 -0.17938,2.41952 -0.35656,3.61941 l 23.64352,4.30982 1.27744,2.68252 -2.74661,0.89452 -22.95518,-5.01054 c -0.18382,0.78403 -0.39262,1.56238 -0.62632,2.33267 -0.2337,0.77029 -0.49234,1.53267 -0.77515,2.28668 -0.47088,1.13685 -0.99726,2.24963 -1.57665,3.33365 -0.57939,1.08402 -1.21188,2.13945 -1.89549,3.1626 -0.0852,0.105 -0.17105,0.20958 -0.25735,0.31367 l 1.65933,0.41393 c 0,0 0.80742,-0.0377 2.08773,-0.0806 1.28033,-0.0429 3.03445,-0.0906 4.92735,-0.10903 1.8929,-0.0184 3.92574,-0.008 5.76347,0.0656 0.91887,0.0368 1.78896,0.0892 2.56884,0.16174 0.77987,0.0725 1.46986,0.16504 2.02726,0.28164 0.46289,0.0968 0.89851,0.21313 1.3131,0.34572 0.41459,0.13257 0.80796,0.28151 1.18701,0.4439 0.7581,0.32477 1.45832,0.70329 2.15077,1.11156 0.69246,0.40827 1.37802,0.84674 2.10685,1.29087 0.72883,0.44415 1.50112,0.89414 2.36833,1.32654 0.43361,0.21619 0.89139,0.42818 1.37873,0.63252 0.48733,0.20432 1.00475,0.40104 1.55856,0.58756 0.55381,0.1865 1.14412,0.3628 1.77715,0.52555 0.63305,0.16273 1.30897,0.31192 2.03399,0.44493 0.72501,0.13302 1.49931,0.24997 2.32905,0.34727 0.82976,0.0973 1.71566,0.17529 2.66289,0.23099 0.94723,0.0557 1.95645,0.0891 3.03392,0.0971 1.07748,0.008 2.22377,-0.009 3.44424,-0.0543 l 0.0656,14.57482 c 0,0 -0.5744,0.0736 -1.58802,0.0915 -0.50682,0.009 -1.12397,0.004 -1.83348,-0.031 -0.70951,-0.035 -1.51166,-0.10013 -2.39003,-0.21135 -0.8784,-0.11123 -1.83339,-0.26863 -2.84686,-0.48834 -1.01347,-0.21972 -2.08609,-0.50201 -3.20084,-0.86248 -0.55737,-0.18024 -1.12535,-0.38004 -1.7017,-0.60152 -0.57636,-0.22147 -1.16175,-0.46447 -1.75287,-0.73122 -0.5911,-0.26674 -1.18843,-0.55728 -1.79007,-0.87333 -0.60163,-0.31606 -1.20746,-0.65793 -1.81539,-1.02733 -0.60795,-0.3694 -1.20358,-0.67484 -1.78697,-0.92294 -0.58341,-0.2481 -1.15498,-0.43885 -1.71566,-0.57878 -0.56069,-0.13991 -1.11075,-0.22898 -1.65055,-0.27388 -0.53979,-0.0453 -1.06986,-0.0458 -1.5906,-0.009 -0.52072,0.0371 -1.03233,0.1117 -1.53582,0.21756 -0.50349,0.10586 -0.99917,0.24308 -1.48725,0.40463 -0.48806,0.16153 -0.96884,0.34781 -1.44332,0.5519 -0.47448,0.20411 -0.94288,0.42638 -1.4056,0.65991 -0.92542,0.46707 -1.82939,0.97963 -2.7187,1.4857 -0.88929,0.50605 -1.76411,1.00585 -2.63188,1.4459 -0.43388,0.22005 -0.86635,0.42491 -1.29759,0.60875 -0.43124,0.18386 -0.8615,0.34656 -1.29191,0.48111 -0.43042,0.13455 -0.86101,0.24106 -1.29243,0.31316 -0.43142,0.0721 -0.86387,0.10945 -1.29811,0.10645 -0.43425,-0.003 -0.86477,-0.0324 -1.2914,-0.0837 -0.42662,-0.0513 -0.84972,-0.12476 -1.26969,-0.21756 -0.41996,-0.0928 -0.83681,-0.20496 -1.25108,-0.3328 -0.41428,-0.12783 -0.82603,-0.27136 -1.23559,-0.42788 -0.8191,-0.31302 -1.63002,-0.67726 -2.43602,-1.0666 -0.80601,-0.38934 -1.60749,-0.80404 -2.40813,-1.21853 -0.80061,-0.41449 -1.60099,-0.82903 -2.40398,-1.2175 -0.803,-0.38846 -1.60952,-0.7512 -2.42259,-1.06246 -0.40654,-0.15564 -0.81474,-0.29856 -1.22525,-0.4253 -0.41051,-0.12674 -0.82324,-0.23716 -1.23869,-0.32866 -0.41544,-0.0915 -0.83387,-0.16363 -1.25522,-0.21343 -0.42135,-0.0498 -0.84612,-0.0771 -1.27434,-0.0791 -0.42822,-0.002 -0.8476,0.0231 -1.25935,0.0703 -0.41175,0.0472 -0.81605,0.1171 -1.21336,0.2067 -0.39733,0.0896 -0.7881,0.19854 -1.17306,0.32402 -0.38496,0.12546 -0.76431,0.26737 -1.13895,0.42219 -0.74927,0.30966 -1.4801,0.67186 -2.20038,1.05989 -0.72028,0.38802 -1.43017,0.80217 -2.13786,1.21646 -0.70766,0.41429 -1.41347,0.82903 -2.12493,1.2175 -0.71146,0.38846 -1.42896,0.75089 -2.16059,1.06143 -0.36582,0.15528 -0.73556,0.29772 -1.10949,0.42375 -0.37394,0.12601 -0.75227,0.23577 -1.13637,0.32607 -0.3841,0.0903 -0.77416,0.16078 -1.17047,0.20878 -0.39631,0.048 -0.79917,0.0731 -1.20975,0.0723 -0.41056,-8e-4 -0.81414,-0.0268 -1.21181,-0.0749 -0.39767,-0.0481 -0.78981,-0.11812 -1.17667,-0.20722 -0.38686,-0.0891 -0.76855,-0.19751 -1.1467,-0.32143 -0.37815,-0.1239 -0.75296,-0.26359 -1.12448,-0.41599 -0.74305,-0.30481 -1.47489,-0.66012 -2.204,-1.04128 -0.7291,-0.38116 -1.45556,-0.78794 -2.18746,-1.19528 -0.73191,-0.40734 -1.46961,-0.81555 -2.22106,-1.19889 -0.75144,-0.38334 -1.51707,-0.74243 -2.30476,-1.05162 -0.39386,-0.15458 -0.79337,-0.29658 -1.19941,-0.42323 -0.40607,-0.12663 -0.81884,-0.23781 -1.23921,-0.33021 -0.42035,-0.0924 -0.84894,-0.16617 -1.28571,-0.21807 -0.43674,-0.0519 -0.88214,-0.0823 -1.33738,-0.0873 -0.45525,-0.005 -0.89921,0.0154 -1.33325,0.0584 -0.43406,0.043 -0.8584,0.10847 -1.27383,0.19327 -0.41542,0.0848 -0.82227,0.18935 -1.22163,0.30954 -0.39936,0.12019 -0.79134,0.25652 -1.17719,0.40566 -0.7717,0.29827 -1.519,0.64813 -2.25206,1.02371 -0.73305,0.37558 -1.45241,0.77664 -2.16731,1.17822 -0.71489,0.40158 -1.42578,0.80352 -2.14302,1.17978 -0.71723,0.37625 -1.44119,0.72719 -2.18126,1.02681 -0.37003,0.1498 -0.74438,0.28671 -1.12396,0.40772 -0.37959,0.12103 -0.76482,0.22633 -1.15652,0.31213 -0.3917,0.0858 -0.78994,0.15217 -1.19631,0.19637 -0.40637,0.0442 -0.82076,0.0665 -1.24437,0.0625 -0.42361,-0.004 -0.84286,-0.034 -1.2578,-0.0868 -0.41495,-0.0528 -0.82575,-0.12814 -1.233,-0.22324 -0.407258,-0.0952 -0.811281,-0.2101 -1.211815,-0.34106 -0.400534,-0.13099 -0.797899,-0.27797 -1.192692,-0.43822 -0.789587,-0.32052 -1.568981,-0.6931 -2.341459,-1.09141 -0.772478,-0.3983 -1.538494,-0.82278 -2.301668,-1.24643 -0.763177,-0.42365 -1.523972,-0.84678 -2.285649,-1.24334 -0.761677,-0.39655 -1.5249,-0.76664 -2.292883,-1.08365 -0.383993,-0.15852 -0.768971,-0.30375 -1.156002,-0.43253 -0.387033,-0.1288 -0.776322,-0.24133 -1.167371,-0.33383 -0.391047,-0.0925 -0.784251,-0.16528 -1.180289,-0.21498 -0.396041,-0.0497 -0.794819,-0.0762 -1.196827,-0.0765 -0.402005,-3e-4 -0.824649,0.0282 -1.262972,0.0822 -0.43832,0.054 -0.892645,0.13347 -1.35909,0.23461 -0.932888,0.20227 -1.914189,0.49148 -2.910416,0.83871 -0.996229,0.34722 -2.007854,0.75278 -3.001884,1.187 -0.994032,0.43424 -1.970684,0.89737 -2.896981,1.36064 -0.926298,0.46329 -1.80268,0.92677 -2.595707,1.36116 -0.79303,0.43439 -1.503324,0.83998 -2.097547,1.18753 -1.188444,0.69507 -1.914095,1.15858 -1.914095,1.15858 l -0.02015,-14.92725 c 0,0 0.650347,-0.48211 1.735295,-1.2051 0.542473,-0.36149 1.194019,-0.78325 1.927014,-1.23506 0.732995,-0.45183 1.547715,-0.93405 2.417424,-1.41594 0.869707,-0.48188 1.795024,-0.96375 2.747636,-1.41542 0.952609,-0.45165 1.933366,-0.87287 2.915067,-1.23403 0.490852,-0.18057 0.982159,-0.34634 1.470195,-0.49299 0.488033,-0.14666 0.973097,-0.27464 1.451591,-0.37982 0.478491,-0.1052 0.950611,-0.18772 1.412833,-0.24392 0.462225,-0.0562 0.914694,-0.0861 1.353923,-0.0858 0.878456,6.3e-4 1.660791,0.0398 2.367814,0.10749 0.707022,0.0677 1.339166,0.16378 1.917195,0.27957 0.578032,0.11577 1.102221,0.25083 1.593702,0.39584 0.491478,0.14499 0.950477,0.29994 1.397847,0.45527 0.447372,0.15532 0.883413,0.3111 1.329118,0.45785 0.445705,0.14675 0.90155,0.28485 1.388029,0.40411 0.486478,0.11926 1.003853,0.22011 1.573547,0.29301 0.569696,0.0729 1.191869,0.11705 1.887224,0.12505 0.347675,0.004 0.714604,-0.0169 1.096574,-0.0599 0.381967,-0.043 0.779249,-0.10822 1.188041,-0.19172 0.817582,-0.16709 1.681538,-0.40913 2.561598,-0.70125 0.88005,-0.29212 1.77649,-0.63448 2.65927,-1.00201 0.88276,-0.36752 1.75242,-0.76013 2.57813,-1.15341 1.24956,-0.59517 2.2265,-1.12837 3.17345,-1.6397 -0.46945,-0.74667 -0.91251,-1.50976 -1.32808,-2.2872 -0.41556,-0.77744 -0.80371,-1.56936 -1.16375,-2.37453 -0.35088,-0.9003 -0.66693,-1.81375 -0.94723,-2.73782 -0.2803,-0.92406 -0.52488,-1.85889 -0.73329,-2.80241 l -23.526209,5.43326 -1.979724,-1.21388 1.341003,-1.788 23.62129,-4.81366 c -0.17282,-1.17801 -0.28955,-2.36367 -0.34985,-3.55276 l -31.51073,4.27829 -6.898287,-6.51484 6.770646,-6.32313 31.596001,3.1781 c 0.0603,-1.20106 0.17829,-2.39866 0.35347,-3.58841 l -24.029541,-4.3801 -1.277441,-2.68252 2.746602,-0.89452 23.17998,5.05964 c 0.20537,-0.92217 0.44525,-1.83585 0.71933,-2.73937 0.27408,-0.90352 0.58241,-1.79702 0.92398,-2.67787 0.38908,-0.88645 0.81209,-1.75748 1.26814,-2.61069 0.45604,-0.85322 0.94519,-1.68876 1.46606,-2.50476 l -20.295918,-12.68036 -0.542086,-2.25826 2.213302,-0.31575 19.930042,13.18214 c 0.7134,-0.95904 1.47225,-1.88364 2.27377,-2.77037 l -25.13955,-19.12855 -0.271301,-9.48469 9.258866,0.31626 19.968805,24.4352 c 0.89575,-0.81037 1.8302,-1.57717 2.79983,-2.29753 l -13.78107,-19.92437 0.99373,-2.80034 2.57452,1.30948 12.71551,19.81739 c 0.7837,-0.49674 1.58564,-0.96432 2.40347,-1.40146 0.81782,-0.43714 1.65168,-0.84391 2.5001,-1.21957 0.96878,-0.38435 1.95312,-0.72812 2.94969,-1.03042 0.99659,-0.30232 2.00559,-0.56322 3.02463,-0.78187 l -5.2927,-22.91746 1.21336,-1.980244 1.78852,1.341524 4.70721,23.09781 c 1.18954,-0.17497 2.38703,-0.29275 3.58789,-0.35295 l -4.20698,-30.984154 z" style="paint-order:stroke fill markers"/>

</svg>
