<?xml version="1.0" encoding="UTF-8"?>
<svg version="1.1" viewBox="0 0 1080 1080" xml:space="preserve" xmlns="http://www.w3.org/2000/svg">

   <path d="m 222.49236,335.70044 c -2.52703,0 -4.99994,0.15307 -7.41867,0.45992 -2.41873,0.30685 -4.78319,0.7676 -7.09362,1.38131 -2.31043,0.61371 -4.56697,1.38059 -6.7691,2.30115 -2.20212,0.92056 -4.35022,1.99461 -6.44405,3.22203 -2.02162,1.22741 -3.97982,2.57231 -5.87509,4.03438 -1.89527,1.46206 -3.72738,3.04149 -5.49631,4.73821 -1.76892,1.69672 -3.47494,3.51067 -5.11751,5.44204 -1.64257,1.93138 -3.222,3.98037 -4.73822,6.1464 -1.44401,2.16602 -2.80707,4.43139 -4.08863,6.79597 -1.28157,2.36457 -2.4817,4.82815 -3.60082,7.39128 -1.11911,2.56313 -2.15684,5.22542 -3.1135,7.98711 -0.95666,2.76168 -1.83251,5.6227 -2.62672,8.58293 -0.79421,2.88804 -1.48897,5.83934 -2.08462,8.85373 -0.59566,3.01438 -1.09221,6.09229 -1.48932,9.23303 -0.3971,3.14073 -0.69493,6.34472 -0.89348,9.61181 -0.19856,3.26709 -0.29766,6.59717 -0.29766,9.99061 v 158.98771 c 0,3.24904 0.0991,6.45303 0.29766,9.61181 0.19855,3.15879 0.49638,6.2725 0.89348,9.34104 0.39711,3.06853 0.89366,6.09196 1.48932,9.07024 0.59565,2.97829 1.29041,5.91143 2.08462,8.79947 0.79421,2.88803 1.67006,5.68575 2.62672,8.39328 0.95666,2.70754 1.99439,5.32521 3.1135,7.85224 1.11912,2.52703 2.31925,4.96362 3.60082,7.31015 1.28156,2.34652 2.64462,4.60307 4.08863,6.76909 1.51622,2.16603 3.09565,4.21451 4.73822,6.14588 1.64257,1.93137 3.34859,3.74532 5.11751,5.44204 1.76893,1.69672 3.60104,3.27667 5.49631,4.73873 1.89527,1.46207 3.85347,2.80645 5.87509,4.03387 2.09383,1.22741 4.24193,2.30146 6.44405,3.22202 2.20213,0.92056 4.45867,1.68796 6.7691,2.30167 2.31043,0.61371 4.67489,1.07394 7.09362,1.38079 2.41873,0.30686 4.89164,0.46044 7.41867,0.46044 h 96.17243 c 2.59923,0 5.1261,-0.15358 7.58093,-0.46044 2.45483,-0.30685 4.83746,-0.76708 7.14788,-1.38079 2.31043,-0.61371 4.54881,-1.38111 6.71484,-2.30167 2.16603,-0.92056 4.25965,-1.99461 6.28127,-3.22202 2.09382,-1.29962 4.1065,-2.69848 6.03787,-4.19665 1.93138,-1.49817 3.78165,-3.09575 5.55057,-4.79247 1.76892,-1.69672 3.45679,-3.49251 5.06326,-5.38778 1.60647,-1.89528 3.13141,-3.88979 4.57543,-5.98362 1.44401,-2.16602 2.80707,-4.42257 4.08864,-6.76909 1.28156,-2.34653 2.4817,-4.78312 3.60081,-7.31015 1.11911,-2.52703 2.15736,-5.1447 3.11402,-7.85224 0.95666,-2.70753 1.83199,-5.50525 2.6262,-8.39328 0.79421,-2.88804 1.48897,-5.82118 2.08463,-8.79947 0.59565,-2.97828 1.09221,-6.00171 1.48931,-9.07024 0.39711,-3.06854 0.69493,-6.18225 0.89349,-9.34104 0.19855,-3.15878 0.29765,-6.36277 0.29765,-9.61181 V 431.87235 c 0,-3.39344 -0.10792,-6.72352 -0.32453,-9.99061 -0.2166,-3.26709 -0.54141,-6.47108 -0.97461,-9.61181 -0.43321,-3.14074 -0.9749,-6.21865 -1.62471,-9.23303 -0.64981,-3.01439 -1.40787,-5.96569 -2.27428,-8.85373 -0.79421,-2.96023 -1.66953,-5.82125 -2.6262,-8.58293 -0.95666,-2.76169 -1.9949,-5.42398 -3.11402,-7.98711 -1.11911,-2.56313 -2.31925,-5.02671 -3.60081,-7.39128 -1.28157,-2.36458 -2.64462,-4.62995 -4.08864,-6.79597 -1.44402,-2.16603 -2.96896,-4.21502 -4.57543,-6.1464 -1.60647,-1.93137 -3.29434,-3.74532 -5.06326,-5.44204 -1.76892,-1.69672 -3.61919,-3.27615 -5.55056,-4.73821 -1.93138,-1.46207 -3.94405,-2.80697 -6.03788,-4.03438 -2.09382,-1.22742 -4.23259,-2.30147 -6.41666,-3.22203 -2.18408,-0.92056 -4.41364,-1.68744 -6.68797,-2.30115 -2.27432,-0.61371 -4.59365,-1.07446 -6.95823,-1.38131 -2.36458,-0.30685 -4.77418,-0.45992 -7.22901,-0.45992 z m 201.0084,0 v 350.03238 h 157.25501 c 2.45483,0 4.85561,-0.15358 7.20214,-0.46044 2.34653,-0.30685 4.63887,-0.76708 6.8771,-1.38079 2.23823,-0.61371 4.42213,-1.38111 6.55205,-2.30167 2.12993,-0.92056 4.20591,-1.99461 6.22753,-3.22202 2.09383,-1.22742 4.1065,-2.56298 6.03788,-4.007 1.93137,-1.44401 3.78164,-2.99646 5.55056,-4.65708 1.76892,-1.66062 3.45627,-3.42943 5.06274,-5.30665 1.60647,-1.87722 3.13193,-3.86292 4.57595,-5.95674 1.44402,-2.16603 2.80656,-4.42257 4.08812,-6.7691 1.28157,-2.34652 2.48222,-4.78311 3.60133,-7.31014 1.11912,-2.52703 2.15685,-5.14419 3.11351,-7.85172 0.95666,-2.70753 1.8325,-5.50577 2.62671,-8.3938 0.79421,-2.88804 1.48897,-5.83 2.08463,-8.82634 0.59566,-2.99633 1.09221,-6.04674 1.48931,-9.15138 0.39711,-3.10464 0.69494,-6.26348 0.89349,-9.47642 0.19855,-3.21294 0.29765,-6.48023 0.29765,-9.80147 V 431.87235 c 0,-3.39344 -0.10844,-6.72352 -0.32504,-9.99061 -0.2166,-3.26709 -0.54141,-6.47108 -0.97462,-9.61181 -0.4332,-3.14074 -0.9749,-6.21865 -1.6247,-9.23303 -0.64981,-3.01439 -1.40787,-5.96569 -2.27428,-8.85373 -0.79421,-2.96023 -1.66954,-5.82125 -2.6262,-8.58293 -0.95666,-2.76169 -1.99439,-5.42398 -3.11351,-7.98711 -1.11911,-2.56313 -2.31976,-5.02671 -3.60133,-7.39128 -1.28156,-2.36458 -2.6441,-4.62995 -4.08812,-6.79597 -1.44402,-2.16603 -2.96066,-4.21502 -4.54908,-6.1464 -1.58841,-1.93137 -3.24878,-3.74532 -4.9816,-5.44204 -1.73282,-1.69672 -3.53795,-3.27615 -5.41518,-4.73821 -1.87722,-1.46207 -3.82659,-2.80697 -5.84822,-4.03438 -2.02162,-1.22742 -4.0976,-2.30147 -6.22753,-3.22203 -2.12992,-0.92056 -4.31382,-1.68744 -6.55205,-2.30115 -2.23823,-0.61371 -4.53057,-1.07446 -6.8771,-1.38131 -2.34653,-0.30685 -4.74731,-0.45992 -7.20214,-0.45992 z m 330.10492,0 c -2.52704,0 -4.99993,0.17123 -7.41867,0.51418 -2.41873,0.34295 -4.78319,0.85767 -7.09362,1.54357 -2.31043,0.68591 -4.56697,1.54308 -6.7691,2.57194 -2.20213,1.02887 -4.35022,2.22951 -6.44405,3.60133 -2.02163,1.29962 -3.97099,2.72545 -5.84822,4.27778 -1.87723,1.55232 -3.68235,3.23084 -5.41517,5.03586 -1.73283,1.80503 -3.39319,3.73675 -4.98161,5.79448 -1.58842,2.05773 -3.10506,4.24163 -4.54908,6.55206 -1.44402,2.23823 -2.80655,4.58504 -4.08812,7.03988 -1.28157,2.45483 -2.48222,5.01801 -3.60133,7.68945 -1.11912,2.67144 -2.15684,5.45099 -3.11351,8.33903 -0.95666,2.88804 -1.83198,5.88447 -2.62619,8.98911 -0.79421,3.03245 -1.48949,6.11916 -2.08515,9.2599 -0.59566,3.14075 -1.09169,6.33539 -1.4888,9.58443 -0.3971,3.24905 -0.69493,6.55264 -0.89348,9.90999 -0.19855,3.35735 -0.29817,6.76887 -0.29817,10.23452 0,3.61005 0.0996,7.13883 0.29817,10.58643 0.19855,3.4476 0.49638,6.81398 0.89348,10.09913 0.39711,3.28514 0.89314,6.48912 1.4888,9.61181 0.59566,3.1227 1.29094,6.16427 2.08515,9.12451 0.79421,2.96024 1.67835,5.82125 2.65306,8.58294 0.97472,2.76169 2.03994,5.42397 3.19516,7.98711 1.15521,2.56313 2.40049,5.02721 3.7362,7.3918 1.33572,2.36458 2.76208,4.62993 4.2783,6.79596 1.58842,2.09383 3.26694,4.07952 5.03586,5.95675 1.76893,1.87722 3.62801,3.64603 5.57744,5.30665 1.94943,1.66062 3.98908,3.21306 6.11901,4.65708 2.12993,1.44402 4.35014,2.77957 6.66057,4.00699 2.31044,1.15522 4.70239,2.16596 7.17528,3.03237 2.47288,0.86641 5.02672,1.58867 7.66206,2.16628 2.63534,0.57761 5.3521,1.01086 8.14989,1.29966 2.79779,0.2888 5.67696,0.43305 8.6372,0.43305 h 37.68917 c 4.90967,0 9.3859,0.21637 13.42916,0.64957 4.04325,0.43321 7.6535,1.08334 10.83034,1.94975 1.58843,0.43321 3.09572,0.93858 4.52169,1.51619 1.42597,0.57761 2.77086,1.22722 4.03438,1.94924 1.26352,0.72201 2.44549,1.51638 3.54655,2.3828 1.10107,0.86641 2.12115,1.80503 3.05977,2.81584 1.01081,0.93862 1.94061,1.96752 2.78897,3.08664 0.84836,1.11911 1.61524,2.32858 2.30115,3.6282 0.68591,1.29962 1.29091,2.68965 1.81436,4.16977 0.52346,1.48012 0.96553,3.0502 1.32654,4.71082 0.86641,3.32125 1.51603,7.00362 1.94923,11.04688 0.43321,4.04325 0.65009,8.44736 0.65009,13.21263 0,4.04325 -0.18056,7.97831 -0.54157,11.80496 -0.361,3.82665 -0.90269,7.54534 -1.6247,11.15539 -0.72201,3.46565 -1.62432,6.71477 -2.70733,9.74721 -1.08302,3.03244 -2.34645,5.84831 -3.79047,8.44755 -1.44402,2.59923 -3.03277,4.94553 -4.7656,7.03936 -1.73282,2.09383 -3.61007,3.93527 -5.6317,5.52369 -1.01081,0.72201 -2.05787,1.35347 -3.14089,1.89498 -1.08302,0.54151 -2.2022,0.99292 -3.35742,1.35392 -1.15521,0.36101 -2.34652,0.63185 -3.57394,0.81235 -1.22742,0.18051 -2.49085,0.27079 -3.79047,0.27079 H 699.02142 v 42.88782 h 144.69142 c 2.52704,0 4.99994,-0.17174 7.41867,-0.5147 2.41873,-0.34295 4.78371,-0.85715 7.09414,-1.54305 2.31043,-0.68591 4.56645,-1.54359 6.76858,-2.57246 2.20213,-1.02886 4.35022,-2.22899 6.44405,-3.60081 2.09383,-1.44402 4.11532,-3.01462 6.06475,-4.71134 1.94942,-1.69673 3.82667,-3.52001 5.63169,-5.46944 1.80503,-1.94942 3.53803,-4.02487 5.19865,-6.22701 1.66063,-2.20213 3.24938,-4.53078 4.7656,-6.98562 1.51623,-2.45483 2.94206,-5.00919 4.27778,-7.66258 1.33572,-2.65338 2.58099,-5.40595 3.73621,-8.25789 1.15521,-2.85194 2.22044,-5.80323 3.19515,-8.85372 0.97471,-3.0505 1.85886,-6.19999 2.65307,-9.44904 0.86641,-3.32125 1.62499,-6.70579 2.27479,-10.15339 0.64981,-3.44759 1.19099,-6.95874 1.62419,-10.53269 0.43321,-3.57395 0.75802,-7.21117 0.97462,-10.91147 0.2166,-3.70031 0.32505,-7.46362 0.32505,-11.29027 0,-3.53785 -0.0991,-7.00334 -0.29766,-10.39678 -0.19855,-3.39345 -0.49638,-6.71521 -0.89349,-9.96425 -0.3971,-3.24905 -0.89365,-6.42553 -1.48931,-9.53017 -0.59566,-3.10464 -1.29042,-6.13739 -2.08463,-9.09764 -0.72201,-3.03244 -1.54337,-5.95675 -2.46393,-8.77259 -0.92056,-2.81584 -1.94065,-5.52326 -3.05976,-8.1225 -1.11912,-2.59923 -2.33741,-5.09029 -3.65508,-7.47293 -1.31766,-2.38263 -2.73468,-4.65681 -4.2509,-6.82284 -1.51622,-2.16603 -3.12262,-4.21501 -4.81934,-6.14639 -1.69673,-1.93138 -3.48369,-3.74532 -5.36092,-5.44205 -1.87722,-1.69672 -3.84475,-3.27614 -5.90248,-4.73821 -2.05773,-1.46207 -4.20582,-2.80696 -6.44405,-4.03438 -2.23823,-1.22742 -4.56689,-2.30146 -6.98562,-3.22202 -2.41873,-0.92057 -4.92743,-1.68745 -7.52667,-2.30115 -2.59924,-0.61371 -5.28902,-1.07394 -8.06876,-1.3808 -2.77974,-0.30685 -5.64957,-0.46044 -8.60981,-0.46044 h -58.48325 c -1.15522,0 -2.28102,-0.0721 -3.37757,-0.21652 -1.09656,-0.1444 -2.16399,-0.36129 -3.20188,-0.65009 -1.03788,-0.2888 -2.04642,-0.64942 -3.02565,-1.08262 -0.97923,-0.43321 -1.92888,-0.93858 -2.84944,-1.51619 -0.92056,-0.57761 -1.81184,-1.22774 -2.67374,-1.94975 -0.8619,-0.72201 -1.6948,-1.51587 -2.49804,-2.38228 -1.60647,-1.73283 -3.0956,-3.75483 -4.46742,-6.06527 -1.37182,-2.31043 -2.57195,-4.80149 -3.60082,-7.47292 -1.02886,-2.67144 -1.88654,-5.52311 -2.57245,-8.55555 -0.68591,-3.03245 -1.2001,-6.24576 -1.54306,-9.63921 -0.34295,-3.39345 -0.5147,-6.96737 -0.5147,-10.72183 0,-3.32124 0.14477,-6.53404 0.43357,-9.63868 0.2888,-3.10465 0.72205,-6.10108 1.29966,-8.98912 0.72201,-3.03244 1.58851,-5.88463 2.59933,-8.55607 1.01081,-2.67143 2.1658,-5.16249 3.46542,-7.47293 1.29962,-2.31043 2.74361,-4.36772 4.33203,-6.17275 1.58843,-1.80502 3.32143,-3.35746 5.19865,-4.65708 0.93862,-0.6498 1.91304,-1.21848 2.92385,-1.70583 1.01082,-0.48736 2.05788,-0.89363 3.1409,-1.21853 1.08301,-0.32491 2.2022,-0.56826 3.35742,-0.73071 1.15521,-0.16245 2.34652,-0.24391 3.57394,-0.24391 H 895.69778 V 335.70044 Z M 251.0839,379.45436 h 38.98883 c 1.15522,0 2.28323,0.0903 3.38429,0.27078 1.10107,0.1805 2.17512,0.45135 3.22203,0.81236 1.04691,0.361 2.067,0.8119 3.05976,1.3534 0.99276,0.54151 1.95837,1.17348 2.89698,1.89549 1.01081,0.64981 1.97642,1.37207 2.89698,2.16628 0.92056,0.79421 1.7964,1.6602 2.62671,2.59881 0.83031,0.93861 1.61536,1.94987 2.35542,3.03289 0.74006,1.08301 1.43482,2.238 2.08462,3.46542 1.44402,2.31043 2.70746,4.83781 3.79047,7.58145 1.08301,2.74363 1.98584,5.70375 2.70785,8.88059 0.722,3.17684 1.2637,6.46177 1.6247,9.85522 0.36101,3.39344 0.54105,6.89525 0.54105,10.5053 v 158.98771 c 0,3.46564 -0.18004,6.85902 -0.54105,10.18026 -0.361,3.32124 -0.9027,6.57037 -1.6247,9.7472 -0.72201,3.03244 -1.58852,5.92044 -2.59933,8.66408 -1.01081,2.74363 -2.16581,5.34314 -3.46542,7.79797 -1.29962,2.31043 -2.77994,4.40405 -4.44056,6.28127 -1.66062,1.87722 -3.50207,3.53811 -5.52369,4.98212 -0.93861,0.72201 -1.91304,1.35347 -2.92385,1.89498 -1.01082,0.54151 -2.05788,0.99292 -3.1409,1.35392 -1.08301,0.36101 -2.2022,0.63185 -3.35741,0.81235 -1.15522,0.18051 -2.34653,0.27079 -3.57395,0.27079 H 251.0839 c -1.22742,0 -2.42755,-0.0903 -3.60081,-0.27079 -1.17327,-0.1805 -2.31944,-0.45134 -3.43855,-0.81235 -1.11912,-0.361 -2.21133,-0.81241 -3.27629,-1.35392 -1.06496,-0.54151 -2.10269,-1.17297 -3.11351,-1.89498 -1.87722,-1.44401 -3.61023,-3.1407 -5.19864,-5.09012 -1.58842,-1.94943 -3.03242,-4.15201 -4.33204,-6.60684 -1.29962,-2.45483 -2.45513,-5.05382 -3.46594,-7.79745 -1.01081,-2.74364 -1.8768,-5.63164 -2.59881,-8.66407 -0.722,-3.17684 -1.2637,-6.39017 -1.6247,-9.63921 -0.36101,-3.24904 -0.54157,-6.53397 -0.54157,-9.85521 V 431.87235 c 0,-3.46564 0.18056,-6.85902 0.54157,-10.18026 0.361,-3.32124 0.9027,-6.57037 1.6247,-9.74721 0.72201,-3.17684 1.588,-6.13696 2.59881,-8.88059 1.01081,-2.74364 2.16632,-5.27103 3.46594,-7.58145 1.44402,-2.45483 2.99646,-4.65689 4.65708,-6.60632 1.66062,-1.94942 3.42943,-3.64611 5.30665,-5.09013 0.93861,-0.72201 1.91356,-1.35398 2.92437,-1.89549 1.01081,-0.5415 2.05737,-0.9924 3.14038,-1.3534 1.08301,-0.36101 2.2022,-0.63186 3.35742,-0.81236 1.15521,-0.1805 2.34652,-0.27078 3.57394,-0.27078 z m 239.56419,0 h 61.51562 c 1.15522,0 2.28375,0.0903 3.38481,0.27078 1.10106,0.1805 2.1746,0.45135 3.22151,0.81236 1.04691,0.361 2.067,0.8119 3.05976,1.3534 0.99276,0.54151 1.95837,1.17348 2.89698,1.89549 1.01081,0.72201 1.97642,1.50705 2.89698,2.35542 0.92056,0.84836 1.7964,1.76 2.62671,2.73471 1.66062,1.94943 3.14043,4.15149 4.44004,6.60632 1.44402,2.31042 2.70746,4.83781 3.79047,7.58145 1.08301,2.74363 1.98584,5.70375 2.70784,8.88059 0.72201,3.17684 1.26371,6.42597 1.62471,9.74721 0.36101,3.32124 0.54105,6.71462 0.54105,10.18026 v 158.98771 c 0,3.32124 -0.18004,6.60617 -0.54105,9.85521 -0.361,3.24904 -0.9027,6.46237 -1.62471,9.63921 -0.722,3.03243 -1.62483,5.92043 -2.70784,8.66407 -1.08301,2.74363 -2.34645,5.34262 -3.79047,7.79745 -1.29961,2.45483 -2.77942,4.65741 -4.44004,6.60684 -0.83031,0.97471 -1.70615,1.88635 -2.62671,2.73471 -0.92056,0.84836 -1.88617,1.63341 -2.89698,2.35541 -0.93861,0.72201 -1.90422,1.35347 -2.89698,1.89498 -0.99276,0.54151 -2.01285,0.99292 -3.05976,1.35392 -1.04691,0.36101 -2.12045,0.63185 -3.22151,0.81235 -1.10106,0.18051 -2.22959,0.27079 -3.38481,0.27079 H 490.64809 Z M 146.89026,710.57937 v 33.72042 h 786.21919 v -33.72042 z" style="paint-order:stroke fill markers"/>

</svg>
