<?xml version="1.0" encoding="UTF-8"?>
<svg version="1.1" viewBox="0 0 1080 1080" xml:space="preserve" xmlns="http://www.w3.org/2000/svg">
<g transform="matrix(3.8044 0 0 3.8044 -13.497 -20.639)">
<path d="m62.299 195.18 73.84-43.397a11.651 11.651 119.78 0 0 5.7475-10.045v-124.29a1.4438 1.4438 12.22 0 0-2.7582-0.59732l-79.818 175.64a2.1095 2.1095 41.998 0 0 2.9894 2.6914z" style="paint-order:stroke fill markers"/>
<path d="m228.68 195.24-73.84-43.397a11.651 11.651 60.222 0 1-5.7475-10.045v-124.29a1.4438 1.4438 167.78 0 1 2.7582-0.59732l79.818 175.64a2.1095 2.1095 138 0 1-2.9894 2.6914z" style="paint-order:stroke fill markers"/>

</g>
</svg>
